<svg width="32" height="32" viewBox="0 0 32 32" fill="none" xmlns="http://www.w3.org/2000/svg">
<path d="M2.0759 11.3796C1.59412 12.8322 1.33331 14.3856 1.33331 15.9999C1.33331 21.5391 4.40398 26.3611 8.93592 28.8565L14.2447 16.6889L2.0759 11.3796Z" fill="white"/>
<path d="M3.14343 8.93593L14.6666 13.9636V1.39307C9.6936 1.84121 5.43634 4.77168 3.14343 8.93593Z" fill="white"/>
<path d="M16 30.6666C14.3857 30.6666 12.8322 30.4058 11.3796 29.924L17.2107 16.5593C17.2516 16.4708 17.2832 16.377 17.304 16.2793C17.3262 16.1764 17.3357 16.0727 17.3333 15.9702V1.39307C24.8086 2.0667 30.6666 8.34922 30.6666 15.9999C30.6666 24.1001 24.1002 30.6666 16 30.6666Z" fill="white"/>
</svg>
