<svg width="25" height="24" viewBox="0 0 25 24" fill="none" xmlns="http://www.w3.org/2000/svg">
<path d="M24.2628 12.2758C24.2628 11.46 24.1967 10.6399 24.0556 9.8374H12.7368V14.4584H19.2185C18.9496 15.9487 18.0853 17.2671 16.8199 18.1049V21.1032H20.6869C22.9577 19.0132 24.2628 15.9267 24.2628 12.2758Z" fill="white"/>
<path d="M12.7373 24.0001C15.9737 24.0001 18.7031 22.9374 20.6917 21.1032L16.8247 18.1048C15.7489 18.8368 14.3599 19.2512 12.7417 19.2512C9.61108 19.2512 6.95666 17.1392 6.00424 14.2996H2.01379V17.3905C4.05091 21.4427 8.20009 24.0001 12.7373 24.0001Z" fill="white"/>
<path d="M5.99972 14.3C5.49706 12.8096 5.49706 11.1958 5.99972 9.70544V6.6145H2.01368C0.311682 10.0053 0.311682 14.0001 2.01368 17.3909L5.99972 14.3V14.3Z" fill="white"/>
<path d="M12.7373 4.74942C14.4481 4.72296 16.1016 5.36672 17.3406 6.54842L20.7667 3.12237C18.5973 1.08526 15.718 -0.0347101 12.7373 0.000564525C8.20009 0.000564525 4.05091 2.55798 2.01379 6.61456L5.99983 9.70551C6.94784 6.86149 9.60667 4.74942 12.7373 4.74942Z" fill="white"/>
</svg>
