<svg width="49" height="48" viewBox="0 0 49 48" fill="none" xmlns="http://www.w3.org/2000/svg">
<rect x="0.5" width="48" height="48" rx="24" fill="#437EF7"/>
<path d="M19.1667 12C15.4848 12 12.5 14.9848 12.5 18.6667C12.5 22.3486 15.4848 25.3333 19.1667 25.3333C22.8486 25.3333 25.8333 22.3486 25.8333 18.6667C25.8333 14.9848 22.8486 12 19.1667 12Z" fill="white"/>
<path d="M34.316 17.7693C33.8115 17.5123 33.2872 17.4172 32.76 17.3741C32.2606 17.3333 31.6543 17.3333 30.9514 17.3333L28.5 17.3333V18.6667C28.5 23.8213 24.3213 28 19.1667 28H17.8333L17.8333 30.4514C17.8333 31.1543 17.8333 31.7606 17.8741 32.26C17.9172 32.7872 18.0123 33.3115 18.2693 33.816C18.6528 34.5686 19.2647 35.1805 20.0174 35.564C20.5219 35.8211 21.0462 35.9162 21.5733 35.9592C22.0727 36 22.679 36 23.3818 36H30.9514C31.6542 36 32.2606 36 32.76 35.9592C33.2872 35.9162 33.8115 35.8211 34.316 35.564C35.0686 35.1805 35.6805 34.5686 36.064 33.816C36.3211 33.3115 36.4162 32.7872 36.4592 32.26C36.5 31.7606 36.5 31.1543 36.5 30.4515V22.882C36.5 22.1792 36.5 21.5727 36.4592 21.0733C36.4162 20.5462 36.3211 20.0219 36.064 19.5174C35.6805 18.7647 35.0686 18.1528 34.316 17.7693Z" fill="white"/>
</svg>
