<svg width="31" height="30" viewBox="0 0 31 30" fill="none" xmlns="http://www.w3.org/2000/svg">
<path fill-rule="evenodd" clip-rule="evenodd" d="M0.833313 14.9999C0.833313 6.89974 7.3998 0.333252 15.5 0.333252C23.6002 0.333252 30.1666 6.89974 30.1666 14.9999C30.1666 23.1001 23.6002 29.6666 15.5 29.6666C7.3998 29.6666 0.833313 23.1001 0.833313 14.9999ZM15.5 4.33325C16.2364 4.33325 16.8333 4.93021 16.8333 5.66658V10.8518C16.8333 11.5881 16.2364 12.1851 15.5 12.1851C14.7636 12.1851 14.1666 11.5881 14.1666 10.8518V5.66658C14.1666 4.93021 14.7636 4.33325 15.5 4.33325ZM24.8333 16.3333C25.5697 16.3333 26.1666 15.7363 26.1666 14.9999C26.1666 14.2635 25.5697 13.6666 24.8333 13.6666H19.6481C18.9117 13.6666 18.3148 14.2635 18.3148 14.9999C18.3148 15.7363 18.9117 16.3333 19.6481 16.3333H24.8333ZM15.5 17.8147C16.2364 17.8147 16.8333 18.4117 16.8333 19.1481V24.3333C16.8333 25.0696 16.2364 25.6666 15.5 25.6666C14.7636 25.6666 14.1666 25.0696 14.1666 24.3333V19.1481C14.1666 18.4117 14.7636 17.8147 15.5 17.8147ZM11.3518 16.3333C12.0882 16.3333 12.6852 15.7363 12.6852 14.9999C12.6852 14.2635 12.0882 13.6666 11.3518 13.6666H6.16665C5.43027 13.6666 4.83331 14.2635 4.83331 14.9999C4.83331 15.7363 5.43027 16.3333 6.16665 16.3333H11.3518Z" fill="white"/>
</svg>
