<svg width="1217" height="32" viewBox="0 0 1217 32" fill="none" xmlns="http://www.w3.org/2000/svg">
<path fill-rule="evenodd" clip-rule="evenodd" d="M159.406 19.9347C160.718 23.179 163.617 25.5017 167.109 26.1147C169.151 26.4692 172.205 25.9297 174.228 24.8544C175.91 23.9584 176.179 23.6216 175.891 22.7882C175.753 22.3848 175.662 20.4772 175.662 17.9263V13.7224L166.971 13.6039V18.1789L170.178 18.1544L170.247 18.9603C170.329 19.9435 170.104 20.1139 168.733 20.1139C167.41 20.1139 166.268 19.4852 165.431 18.2935C164.889 17.5258 164.803 17.2183 164.81 16.1235C164.823 14.4333 165.423 13.2797 166.722 12.4415C167.631 11.8579 167.797 11.8226 169.247 11.9009C170.265 11.9568 171.242 12.1663 172.091 12.513L173.382 13.0379V6L170.021 6.10674C166.268 6.22523 164.85 6.54838 163.056 7.69802C161.034 8.99846 159.482 11.2331 158.905 13.6832C158.502 15.4018 158.731 18.2651 159.406 19.9347ZM72.1937 18.2856C72.1575 21.9666 72.0468 25.1433 71.9528 25.3402C71.7903 25.676 71.9998 25.7035 75.0022 25.6995H78.2288V6.04309L68.6146 6.15374L68.5548 8.94754L68.5 11.7394L70.3802 11.664L72.2574 11.5935L72.1937 18.2856ZM79.4736 15.8757V6.0519H87.951V11.7717L85.6752 11.5807V13.6988H89.1907V6.04309H95.4011V25.6917H88.7922L88.9939 25.1619C89.1036 24.8701 89.1956 23.2416 89.1956 21.5436V18.4541H85.6556L85.7193 21.714C85.7545 23.507 85.8613 25.1345 85.9563 25.3323C86.1178 25.6682 85.9005 25.6946 82.8002 25.6946H79.4697V15.8757H79.4736ZM176.63 6.51313C176.855 7.13691 176.846 24.877 176.622 25.3402C176.456 25.68 176.8 25.7035 182.464 25.7123H188.484V19.873L188.018 20.016C187.414 20.2011 183.416 20.4185 183.064 20.2833C182.874 20.2128 182.815 19.8524 182.867 19.0906L182.943 18.0007L184.317 18.1143C185.075 18.1789 185.857 18.2935 186.055 18.3718C186.387 18.503 186.418 18.3082 186.418 16.0451V13.5764L182.903 13.7576V11.2214L184.507 11.2262C186.004 11.2331 186.884 11.3565 188.03 11.7237L188.5 11.8735L188.382 6.15374L176.459 6.04309L176.63 6.51313ZM119.742 25.0285C116.878 18.1786 111.956 7.08178 111.581 6.63524L111.088 6.04671H118.035C121.856 6.04671 124.984 6.1182 124.984 6.20045C124.984 6.28761 124.577 7.42549 124.083 8.73279L123.183 11.1114L121.603 11.1711C120.733 11.2025 120.022 11.2651 120.022 11.3082C120.022 11.505 121.962 16.7137 122.089 16.8586C122.168 16.9497 123.143 14.5525 124.262 11.5344L126.292 6.04671H142.369V9.06965C142.369 11.8732 142.341 12.0789 142.005 11.9251C141.809 11.8341 140.551 11.7234 139.213 11.6793L136.783 11.601V13.7573L140.3 13.5771V18.4195L139.383 18.2256C138.881 18.1189 138.111 18.0601 137.676 18.0954L136.886 18.1581L136.76 20.5366H138.605C139.718 20.5366 140.801 20.4133 141.33 20.2252C141.812 20.0549 142.243 19.9119 142.286 19.9119C142.329 19.9119 142.365 21.2153 142.365 22.8075V25.7032H136.342C131.407 25.7032 130.356 25.6571 130.542 25.4348C130.787 25.1381 130.993 10.8108 130.748 10.8108C130.673 10.8108 129.183 14.1608 127.441 18.257L124.273 25.7032H120.022L119.742 25.0285ZM143.155 6.04691L143.325 6.51401C143.55 7.13289 143.546 24.8749 143.318 25.3352C143.151 25.672 143.377 25.6994 146.686 25.6994C150.127 25.6994 150.23 25.6887 150.021 25.3009C149.902 25.0796 149.807 23.7723 149.807 22.3925C149.807 19.8886 149.807 19.8856 150.273 20.0188C151.143 20.2764 152.28 21.1528 152.833 21.9812C153.453 22.9223 153.706 24.5664 153.338 25.2607L153.098 25.6994H156.634C158.704 25.6994 160.121 25.6201 160.054 25.5144C159.991 25.4106 159.77 24.305 159.557 23.0564C159.087 20.3116 158.249 18.5607 156.914 17.5423L156.029 16.8627L156.535 16.1831C158.221 13.8966 157.953 10.0687 155.966 8.08472C154.35 6.46994 152.509 6.05866 146.947 6.05572L143.155 6.04691ZM96.3649 6.90443C96.784 8.12947 96.6841 24.8394 96.2542 25.3593C95.9938 25.6756 96.4168 25.704 101.999 25.704H108.014V19.8658L107.548 20.0156C107.291 20.0978 106.031 20.2124 104.743 20.2682L102.405 20.3701L102.468 19.2596L102.531 18.1521L103.321 18.0874C103.756 18.0512 104.526 18.1119 105.027 18.2187L105.944 18.4106V13.5682L104.174 13.6642L102.405 13.7543L102.531 11.3199L104.187 11.265C105.122 11.2327 106.316 11.3336 106.928 11.4942L108.014 11.7782V6.05151H96.0692L96.3649 6.90443ZM151.155 11.5229C150.743 11.3515 150.455 11.2379 150.258 11.2261C149.819 11.1978 149.807 11.66 149.807 13.0789V14.9395H150.44C150.866 14.9395 151.273 14.7456 151.68 14.3392C152.635 13.3825 152.387 12.035 151.155 11.5229Z" fill="#DB0E31"/>
<path d="M303.147 22.4416L304.317 19.8106C305.581 20.7241 307.261 21.1992 308.921 21.1992C310.148 21.1992 310.922 20.7424 310.922 20.0481C310.903 18.1114 303.581 19.6279 303.525 14.7678C303.506 12.3012 305.77 10.4011 308.978 10.4011C310.884 10.4011 312.79 10.8579 314.148 11.8993L313.054 14.5851C311.808 13.8177 310.261 13.2696 308.789 13.2696C307.789 13.2696 307.129 13.7264 307.129 14.311C307.148 16.2112 314.526 15.1698 314.601 19.8106C314.601 22.3319 312.393 24.1042 309.223 24.1042C306.902 24.1042 304.77 23.5744 303.147 22.4416Z" fill="black"/>
<path d="M348.038 18.8605C347.453 19.8472 346.358 20.5231 345.094 20.5231C343.226 20.5231 341.716 19.0615 341.716 17.2527C341.716 15.4439 343.226 13.9822 345.094 13.9822C346.358 13.9822 347.453 14.6582 348.038 15.6449L351.264 13.9091C350.057 11.8262 347.736 10.4011 345.094 10.4011C341.188 10.4011 338.018 13.4706 338.018 17.2527C338.018 21.0347 341.188 24.1042 345.094 24.1042C347.755 24.1042 350.057 22.6974 351.264 20.5962L348.038 18.8605Z" fill="black"/>
<path d="M316.224 4.71887H320.262V23.8484H316.224V4.71887Z" fill="black"/>
<path d="M352.849 4.71887V23.8484H356.887V18.1114L361.68 23.8484H366.85L360.756 17.0335L366.398 10.6752H361.454L356.887 15.9555V4.71887H352.849Z" fill="black"/>
<path d="M332.263 18.897C331.678 19.8288 330.47 20.5231 329.112 20.5231C327.244 20.5231 325.734 19.0615 325.734 17.2527C325.734 15.4439 327.244 13.9822 329.112 13.9822C330.47 13.9822 331.678 14.713 332.263 15.6631V18.897ZM332.263 10.6752V12.2282C331.602 11.1502 329.961 10.4011 328.244 10.4011C324.696 10.4011 321.904 13.4341 321.904 17.2344C321.904 21.0347 324.696 24.1042 328.244 24.1042C329.961 24.1042 331.602 23.3551 332.263 22.2772V23.8302H336.301V10.6752H332.263Z" fill="black"/>
<path d="M278.564 19.172C278.564 20.5669 277.436 21.6943 276.041 21.6943C274.646 21.6943 273.519 20.5669 273.519 19.172C273.519 17.7771 274.646 16.6497 276.041 16.6497H278.564V19.172Z" fill="#E01E5A"/>
<path d="M279.825 19.172C279.825 17.7771 280.952 16.6497 282.347 16.6497C283.742 16.6497 284.869 17.7771 284.869 19.172V25.4777C284.869 26.8726 283.742 28 282.347 28C280.952 28 279.825 26.8726 279.825 25.4777V19.172Z" fill="#E01E5A"/>
<path d="M282.347 9.04459C280.952 9.04459 279.825 7.9172 279.825 6.5223C279.825 5.12739 280.952 4 282.347 4C283.742 4 284.869 5.12739 284.869 6.5223V9.04459H282.347Z" fill="#36C5F0"/>
<path d="M282.347 10.3248C283.742 10.3248 284.869 11.4523 284.869 12.8472C284.869 14.2421 283.742 15.3694 282.347 15.3694H276.022C274.627 15.3694 273.5 14.2421 273.5 12.8472C273.5 11.4523 274.627 10.3248 276.022 10.3248H282.347Z" fill="#36C5F0"/>
<path d="M292.455 12.8472C292.455 11.4523 293.583 10.3248 294.978 10.3248C296.373 10.3248 297.5 11.4523 297.5 12.8472C297.5 14.2421 296.373 15.3694 294.978 15.3694H292.455V12.8472Z" fill="#2EB67D"/>
<path d="M291.194 12.8472C291.194 14.2421 290.067 15.3694 288.672 15.3694C287.277 15.3694 286.15 14.2421 286.15 12.8472V6.5223C286.15 5.12739 287.277 4 288.672 4C290.067 4 291.194 5.12739 291.194 6.5223V12.8472Z" fill="#2EB67D"/>
<path d="M288.672 22.9554C290.067 22.9554 291.194 24.0828 291.194 25.4777C291.194 26.8726 290.067 28 288.672 28C287.277 28 286.15 26.8726 286.15 25.4777V22.9554H288.672Z" fill="#ECB22E"/>
<path d="M288.672 21.6943C287.277 21.6943 286.15 20.5669 286.15 19.172C286.15 17.7771 287.277 16.6497 288.672 16.6497H294.997C296.392 16.6497 297.519 17.7771 297.519 19.172C297.519 20.5669 296.392 21.6943 294.997 21.6943H288.672Z" fill="#ECB22E"/>
<path d="M493.502 12.4774H484.959V15.0123H491.018C490.718 18.5605 487.762 20.0835 484.97 20.0835C484.085 20.0874 483.209 19.915 482.391 19.5764C481.574 19.2379 480.833 18.7399 480.21 18.1116C479.587 17.4834 479.096 16.7373 478.765 15.9171C478.434 15.0969 478.269 14.2189 478.281 13.3344C478.281 9.49694 481.252 6.5424 484.978 6.5424C487.852 6.5424 489.545 8.37449 489.545 8.37449L491.319 6.53626C491.319 6.53626 489.04 4 484.885 4C479.593 4 475.5 8.46593 475.5 13.2894C475.5 18.016 479.35 22.6252 485.019 22.6252C490.005 22.6252 493.654 19.2094 493.654 14.1587C493.654 13.0929 493.499 12.4774 493.499 12.4774H493.502Z" fill="#4885ED"/>
<path d="M500.501 10.6412C496.995 10.6412 494.483 13.3822 494.483 16.5776C494.483 19.8215 496.919 22.6129 500.542 22.6129C503.821 22.6129 506.508 20.1067 506.508 16.6472C506.508 12.6896 503.383 10.6412 500.501 10.6412ZM500.535 12.9926C502.259 12.9926 503.892 14.3866 503.892 16.6322C503.892 18.8293 502.266 20.2636 500.527 20.2636C498.616 20.2636 497.115 18.7338 497.115 16.6144C497.115 14.5401 498.603 12.9926 500.541 12.9926H500.535Z" fill="#DB3236"/>
<path d="M513.589 10.6412C510.083 10.6412 507.571 13.3822 507.571 16.5776C507.571 19.8215 510.007 22.6129 513.63 22.6129C516.909 22.6129 519.596 20.1067 519.596 16.6472C519.596 12.6896 516.471 10.6412 513.589 10.6412ZM513.623 12.9926C515.347 12.9926 516.98 14.3866 516.98 16.6322C516.98 18.8293 515.354 20.2636 513.615 20.2636C511.704 20.2636 510.203 18.7338 510.203 16.6144C510.203 14.5401 511.691 12.9926 513.629 12.9926H513.623Z" fill="#F4C20D"/>
<path d="M526.426 10.6481C523.208 10.6481 520.679 13.4661 520.679 16.6295C520.679 20.2322 523.611 22.6218 526.37 22.6218C528.076 22.6218 528.983 21.9442 529.645 21.167V22.3475C529.645 24.4129 528.391 25.65 526.498 25.65C524.67 25.65 523.752 24.2901 523.428 23.5191L521.127 24.4743C521.943 26.2007 523.586 28 526.517 28C529.724 28 532.155 25.985 532.155 21.7586V11.0076H529.655V12.0216C528.884 11.1891 527.827 10.6481 526.427 10.6481H526.426ZM526.658 12.9953C528.235 12.9953 529.855 14.3423 529.855 16.6424C529.855 18.9808 528.238 20.2691 526.623 20.2691C524.908 20.2691 523.312 18.8771 523.312 16.6643C523.312 14.3661 524.97 12.9953 526.658 12.9953Z" fill="#4885ED"/>
<path d="M543.329 10.6337C540.294 10.6337 537.745 13.0492 537.745 16.611C537.745 20.3817 540.586 22.6177 543.613 22.6177C546.146 22.6177 547.707 21.2325 548.629 19.9907L546.559 18.6137C546.022 19.4462 545.124 20.2616 543.626 20.2616C541.944 20.2616 541.17 19.3404 540.69 18.4465L548.717 15.1167L548.307 14.141C547.532 12.2304 545.723 10.6337 543.329 10.6337ZM543.433 12.9359C544.527 12.9359 545.314 13.5173 545.648 14.2147L540.288 16.4548C540.056 14.7203 541.7 12.9359 543.426 12.9359H543.433Z" fill="#DB3236"/>
<path d="M533.913 22.2629H536.549V4.61957H533.913V22.2629Z" fill="#3CBA54"/>
<path d="M674.702 5.16481C673.576 4.38908 672.107 4.00027 670.295 4.00027H663.279C662.724 4.00027 662.417 4.27878 662.359 4.83525L659.509 22.7682C659.479 22.9443 659.523 23.1054 659.64 23.2518C659.757 23.3985 659.903 23.4715 660.079 23.4715H663.411C663.996 23.4715 664.317 23.1937 664.376 22.6365L665.165 17.8018C665.194 17.5675 665.296 17.377 665.472 17.2303C665.647 17.0839 665.866 16.9881 666.13 16.9443C666.393 16.9007 666.641 16.8787 666.875 16.8787C667.109 16.8787 667.386 16.8936 667.708 16.9228C668.029 16.9519 668.234 16.9663 668.322 16.9663C670.836 16.9663 672.809 16.2563 674.241 14.8346C675.673 13.4137 676.39 11.4433 676.39 8.92269C676.39 7.19388 675.827 5.94135 674.702 5.16441V5.16481ZM671.084 10.5495C670.938 11.5753 670.558 12.2489 669.944 12.5713C669.331 12.8942 668.454 13.0549 667.314 13.0549L665.867 13.0987L666.612 8.3955C666.67 8.07347 666.86 7.91225 667.182 7.91225H668.016C669.184 7.91225 670.032 8.08113 670.559 8.41754C671.084 8.75475 671.26 9.46559 671.084 10.5495Z" fill="#003087"/>
<path d="M748.736 4H745.492C745.169 4 744.979 4.16122 744.922 4.48379L742.071 22.7687L742.028 22.8566C742.028 23.0038 742.086 23.1423 742.203 23.2743C742.319 23.4059 742.466 23.4719 742.641 23.4719H745.536C746.09 23.4719 746.397 23.1941 746.457 22.6369L749.306 4.65965V4.61599C749.306 4.20556 749.116 4.00054 748.736 4.00054V4Z" fill="#009CDE"/>
<path d="M709.538 11.0775C709.538 10.9313 709.479 10.7919 709.363 10.6604C709.245 10.5286 709.114 10.4622 708.968 10.4622H705.592C705.27 10.4622 705.007 10.6094 704.802 10.9017L700.155 17.7587L698.226 11.1656C698.079 10.6972 697.758 10.4622 697.261 10.4622H693.972C693.825 10.4622 693.694 10.5283 693.578 10.6604C693.461 10.7919 693.402 10.9316 693.402 11.0775C693.402 11.1365 693.687 12.0006 694.257 13.6709C694.827 15.3416 695.441 17.1438 696.099 19.0779C696.757 21.0116 697.1 22.0377 697.129 22.1539C694.732 25.4363 693.534 27.1944 693.534 27.4285C693.534 27.8098 693.724 28 694.104 28H697.48C697.801 28 698.064 27.8538 698.269 27.5607L709.45 11.385C709.508 11.327 709.538 11.2249 709.538 11.0774V11.0775Z" fill="#003087"/>
<path d="M740.976 10.4622H737.644C737.234 10.4622 736.986 10.9459 736.899 11.913C736.138 10.7412 734.75 10.1545 732.733 10.1545C730.628 10.1545 728.838 10.9459 727.362 12.5282C725.885 14.1106 725.148 15.9719 725.148 18.1107C725.148 19.8399 725.652 21.217 726.66 22.2422C727.669 23.2685 729.02 23.7806 730.716 23.7806C731.564 23.7806 732.426 23.6045 733.303 23.2532C734.18 22.9016 734.866 22.433 735.364 21.8467C735.364 21.8761 735.334 22.0075 735.276 22.2418C735.217 22.4766 735.189 22.653 735.189 22.7693C735.189 23.2387 735.378 23.4724 735.759 23.4724H738.784C739.339 23.4724 739.661 23.1946 739.748 22.6375L741.546 11.1654C741.575 10.9894 741.532 10.8286 741.415 10.6819C741.297 10.5357 741.151 10.4622 740.976 10.4622ZM735.254 19.1215C734.509 19.8541 733.61 20.2202 732.558 20.2202C731.71 20.2202 731.023 19.9862 730.497 19.5171C729.97 19.0493 729.707 18.4045 729.707 17.5831C729.707 16.4997 730.073 15.5832 730.804 14.8361C731.534 14.0888 732.441 13.7153 733.522 13.7153C734.34 13.7153 735.02 13.957 735.561 14.4403C736.101 14.9239 736.373 15.5906 736.373 16.4406C736.372 17.4954 736 18.3893 735.254 19.1215Z" fill="#009CDE"/>
<path d="M691.166 10.4622H687.834C687.424 10.4622 687.176 10.9459 687.088 11.913C686.299 10.7412 684.91 10.1545 682.922 10.1545C680.818 10.1545 679.027 10.9459 677.551 12.5282C676.075 14.1106 675.337 15.9719 675.337 18.1107C675.337 19.8399 675.841 21.217 676.85 22.2422C677.858 23.2685 679.21 23.7806 680.906 23.7806C681.724 23.7806 682.572 23.6045 683.449 23.2532C684.326 22.9016 685.027 22.433 685.553 21.8467C685.436 22.198 685.378 22.5058 685.378 22.7693C685.378 23.2387 685.568 23.4724 685.948 23.4724H688.973C689.528 23.4724 689.85 23.1946 689.938 22.6375L691.736 11.1654C691.764 10.9894 691.721 10.8286 691.604 10.6819C691.487 10.5357 691.341 10.4622 691.166 10.4622ZM685.444 19.1433C684.698 19.8621 683.785 20.2202 682.704 20.2202C681.855 20.2202 681.176 19.9862 680.665 19.5171C680.153 19.0493 679.897 18.4045 679.897 17.5831C679.897 16.4997 680.262 15.5832 680.994 14.8361C681.724 14.0888 682.63 13.7152 683.712 13.7152C684.53 13.7152 685.21 13.957 685.751 14.4403C686.291 14.9239 686.562 15.5906 686.562 16.4406C686.562 17.5248 686.189 18.4261 685.444 19.1433Z" fill="#003087"/>
<path d="M724.512 5.16481C723.386 4.38908 721.918 4.00027 720.105 4.00027H713.133C712.549 4.00027 712.227 4.27878 712.169 4.83525L709.319 22.7682C709.289 22.9443 709.333 23.1054 709.45 23.2518C709.566 23.3985 709.713 23.4715 709.889 23.4715H713.484C713.835 23.4715 714.068 23.2813 714.186 22.9002L714.975 17.8018C715.004 17.5675 715.106 17.377 715.282 17.2303C715.457 17.0839 715.676 16.9881 715.94 16.9443C716.203 16.9007 716.451 16.8787 716.685 16.8787C716.919 16.8787 717.196 16.8936 717.518 16.9228C717.839 16.9519 718.045 16.9663 718.132 16.9663C720.646 16.9663 722.619 16.2563 724.051 14.8346C725.484 13.4137 726.2 11.4433 726.2 8.92269C726.2 7.19388 725.637 5.94121 724.512 5.16441V5.16481ZM720.018 12.3953C719.374 12.8348 718.41 13.0545 717.124 13.0545L715.72 13.0985L716.466 8.39523C716.524 8.07333 716.714 7.91184 717.036 7.91184H717.825C718.468 7.91184 718.979 7.94127 719.36 7.99971C719.739 8.05856 720.105 8.2414 720.456 8.54893C720.807 8.85672 720.982 9.30384 720.982 9.8896C720.982 11.1208 720.66 11.9555 720.018 12.3953Z" fill="#009CDE"/>
<path d="M885.849 12.5683H889.021V22.5518H885.849V12.5683Z" fill="#E60023"/>
<path d="M889.683 12.5682H892.738V13.9332H892.796C893.536 12.8607 894.489 12.2758 895.87 12.2758C898.049 12.2758 899.334 13.8357 899.334 16.0586V22.5518H896.162V16.7021C896.162 15.6491 895.637 14.9276 894.606 14.9276C893.555 14.9276 892.855 15.8051 892.855 17.0335V22.5518H889.683V12.5682Z" fill="#E60023"/>
<path d="M889.337 9.89724C889.337 8.84422 888.486 7.99069 887.435 7.99069C886.384 7.99069 885.533 8.84422 885.533 9.89724C885.533 10.9502 886.384 11.8037 887.435 11.8037C888.486 11.8037 889.337 10.9502 889.337 9.89724Z" fill="#E60023"/>
<path d="M921.639 12.4241C921.548 12.4159 921.445 12.4122 921.323 12.4122C920.117 12.4122 919.3 12.9387 918.599 14.1282H918.541V12.5683H915.506V22.5517H918.677V18.067C918.677 15.989 919.825 15.0261 921.639 15.1941V12.4241Z" fill="#E60023"/>
<path d="M937.202 16.2535C935.938 16.0196 934.809 15.9221 934.809 15.2202C934.809 14.5961 935.412 14.3037 936.191 14.3037C937.066 14.3037 937.669 14.5766 937.786 15.4736H940.705C940.549 13.5042 939.031 12.2757 936.21 12.2757C933.856 12.2757 931.91 13.3677 931.91 15.4736C931.91 17.8134 933.759 18.2814 935.49 18.574C936.813 18.808 938.02 18.9055 938.02 19.8024C938.02 20.4459 937.416 20.7969 936.463 20.7969C935.507 20.7969 934.874 20.3913 934.68 19.5685H931.658C931.88 21.6208 933.678 22.8638 936.482 22.8638C939.09 22.8638 941.016 21.7328 941.016 19.549C941.016 16.9945 938.953 16.546 937.202 16.2535Z" fill="#E60023"/>
<path d="M926.559 14.5376C927.59 14.5376 928.329 15.2981 928.446 16.4876H924.516C924.73 15.2981 925.352 14.5376 926.559 14.5376ZM926.734 20.5628C925.43 20.5628 924.691 19.7244 924.496 18.3789H931.656C931.676 16.3511 931.092 14.6156 929.905 13.5237C929.049 12.7438 927.921 12.2758 926.5 12.2758C923.465 12.2758 921.383 14.5571 921.383 17.5406C921.383 20.5628 923.407 22.8443 926.695 22.8443C927.959 22.8443 928.971 22.5128 929.808 21.9278C930.683 21.3234 931.267 20.4654 931.481 19.5685H928.387C928.115 20.1924 927.57 20.5628 926.734 20.5628Z" fill="#E60023"/>
<path d="M946.601 20.1976C946.454 20.2034 946.257 20.212 946.076 20.212C945.395 20.212 944.967 20.0169 944.967 19.2369V14.5571H946.601V12.5682H944.967V9.40938H941.873V12.5682H940.9V14.5571H941.873V19.9194C941.873 22.0644 943.196 22.6688 945.045 22.6688C945.75 22.6688 946.283 22.6159 946.601 22.5536V20.1976Z" fill="#E60023"/>
<path d="M904.997 20.2021C904.871 20.207 904.725 20.212 904.588 20.212C903.907 20.212 903.479 20.0169 903.479 19.2369V14.5571H904.997V12.5682H903.479V9.40938H900.386V12.5682H899.354V14.5571H900.386V19.9194C900.386 22.0644 901.709 22.6688 903.557 22.6688C904.182 22.6688 904.672 22.6271 904.997 22.5742V20.2021Z" fill="#E60023"/>
<path d="M911.905 16.4876C911.789 15.2981 911.049 14.5376 910.018 14.5376C908.812 14.5376 908.189 15.2981 907.975 16.4876H911.905ZM904.842 17.5405C904.842 14.5571 906.924 12.2758 909.96 12.2758C911.38 12.2758 912.508 12.7438 913.364 13.5237C914.551 14.6157 915.135 16.3511 915.116 18.379H907.956C908.15 19.7244 908.889 20.5629 910.193 20.5629C911.03 20.5629 911.574 20.1924 911.847 19.5685H914.94C914.726 20.4654 914.143 21.3233 913.267 21.9279C912.431 22.5128 911.419 22.8443 910.154 22.8443C906.866 22.8443 904.842 20.5629 904.842 17.5405Z" fill="#E60023"/>
<path d="M880.342 15.1617C881.587 15.1617 882.287 14.4207 882.287 13.3091C882.287 12.1978 881.567 11.5153 880.342 11.5153H877.909V15.1617H880.342ZM874.699 8.60992H880.206C881.899 8.60992 883.144 9.07786 884 9.89686C884.895 10.7352 885.401 11.9248 885.401 13.3287C885.401 16 883.553 17.8915 880.692 17.8915H877.909V22.5518H874.699V8.60992Z" fill="#E60023"/>
<path d="M870.346 16C870.346 22.6274 864.985 28 858.373 28C851.76 28 846.399 22.6274 846.399 16C846.399 9.37252 851.76 4 858.373 4C864.985 4 870.346 9.37252 870.346 16Z" fill="white"/>
<path d="M858.373 4C851.76 4 846.399 9.37252 846.399 16C846.399 21.0838 849.553 25.4283 854.008 27.1767C853.903 26.2273 853.808 24.7671 854.049 23.7306C854.267 22.7941 855.453 17.7659 855.453 17.7659C855.453 17.7659 855.095 17.047 855.095 15.9842C855.095 14.3156 856.06 13.0699 857.262 13.0699C858.283 13.0699 858.777 13.8386 858.777 14.7603C858.777 15.7899 858.123 17.3292 857.785 18.7557C857.503 19.9501 858.383 20.9241 859.558 20.9241C861.686 20.9241 863.322 18.6753 863.322 15.4291C863.322 12.5558 861.262 10.547 858.321 10.547C854.914 10.547 852.914 13.108 852.914 15.7546C852.914 16.786 853.31 17.892 853.805 18.4932C853.903 18.612 853.917 18.7161 853.888 18.8374C853.797 19.2164 853.595 20.0315 853.555 20.1983C853.503 20.4179 853.382 20.4646 853.155 20.3587C851.66 19.6611 850.725 17.4699 850.725 15.7099C850.725 11.9245 853.469 8.44814 858.636 8.44814C862.79 8.44814 866.018 11.4145 866.018 15.3788C866.018 19.5144 863.416 22.8428 859.804 22.8428C858.591 22.8428 857.45 22.2111 857.06 21.4649C857.06 21.4649 856.46 23.756 856.314 24.3175C856.044 25.3598 855.314 26.6663 854.826 27.4634C855.946 27.811 857.138 28 858.373 28C864.985 28 870.346 22.6274 870.346 16C870.346 9.37252 864.985 4 858.373 4Z" fill="#E60023"/>
<path fill-rule="evenodd" clip-rule="evenodd" d="M1078.56 13.2112C1077.42 13.2112 1076.89 14.1208 1076.59 14.6513C1076.44 14.9545 1076.44 15.2577 1076.29 15.2577C1076.14 15.2577 1076.21 15.0303 1076.14 14.5755C1075.98 13.8934 1075.45 13.2112 1074.32 13.2112C1073.1 13.2112 1072.57 14.1966 1072.35 14.8029C1072.19 15.1819 1072.19 15.2577 1072.04 15.2577C1071.89 15.2577 1072.04 14.9545 1072.12 14.5755C1072.27 13.8934 1072.19 13.3628 1072.19 13.3628H1070.3V20.4877H1072.88C1072.88 20.4877 1072.88 17.5316 1072.88 16.9252C1072.88 16.2431 1073.18 15.3335 1073.63 15.3335C1074.24 15.3335 1074.32 15.7883 1074.32 16.6221V20.4877H1076.89C1076.89 20.4877 1076.89 17.4558 1076.89 16.9252C1076.89 16.3189 1077.12 15.3335 1077.73 15.3335C1078.33 15.3335 1078.41 15.9399 1078.41 16.6221V20.4877H1080.99C1080.99 20.4877 1080.99 17.6832 1080.99 16.3189C1080.91 14.4997 1080.23 13.2112 1078.56 13.2112Z" fill="#101828"/>
<path fill-rule="evenodd" clip-rule="evenodd" d="M1122.52 13.2112C1121.39 13.2112 1120.86 14.1208 1120.55 14.6513C1120.4 14.9545 1120.4 15.2577 1120.25 15.2577C1120.1 15.2577 1120.17 14.9545 1120.1 14.5755C1119.87 13.8934 1119.42 13.2112 1118.28 13.2112C1117.07 13.2112 1116.54 14.1966 1116.31 14.8029C1116.16 15.1819 1116.16 15.2577 1116 15.2577C1115.85 15.2577 1116 14.9545 1116.08 14.5755C1116.23 13.8934 1116.16 13.3628 1116.16 13.3628H1114.26V20.4877H1116.84C1116.84 20.4877 1116.84 17.5316 1116.84 16.9252C1116.84 16.2431 1117.14 15.3335 1117.6 15.3335C1118.2 15.3335 1118.28 15.7883 1118.28 16.6221V20.4877H1120.86C1120.86 20.4877 1120.86 17.4558 1120.86 16.9252C1120.86 16.3189 1121.08 15.3335 1121.69 15.3335C1122.3 15.3335 1122.37 15.9399 1122.37 16.6221V20.4877H1124.95C1124.95 20.4877 1124.95 17.6832 1124.95 16.3189C1124.87 14.4997 1124.27 13.2112 1122.52 13.2112Z" fill="#101828"/>
<path d="M1085.31 13.2112C1083.34 13.2112 1081.9 13.9692 1081.9 13.9692V16.0915C1081.9 16.0915 1083.49 15.1819 1084.78 15.1819C1085.76 15.1819 1085.91 15.7125 1085.84 16.1673C1085.84 16.1673 1085.53 16.0915 1084.62 16.0915C1082.5 16.0915 1081.44 17.0768 1081.44 18.5928C1081.44 20.0329 1082.65 20.6393 1083.64 20.6393C1085.08 20.6393 1085.76 19.6539 1085.99 19.1991C1086.14 18.896 1086.14 18.6686 1086.29 18.6686C1086.44 18.6686 1086.37 18.8202 1086.37 19.1233C1086.37 19.6539 1086.37 20.1087 1086.44 20.4877H1088.41V17.001C1088.49 14.8029 1087.66 13.2112 1085.31 13.2112ZM1084.7 18.896C1084.09 19.0475 1083.79 18.8202 1083.79 18.4412C1083.79 17.9106 1084.4 17.6832 1085.23 17.6832H1085.91C1085.91 17.9106 1085.38 18.7444 1084.7 18.896Z" fill="#101828"/>
<path fill-rule="evenodd" clip-rule="evenodd" d="M1092.74 11.2405H1095.31V20.5635H1092.74V11.2405Z" fill="#101828"/>
<path fill-rule="evenodd" clip-rule="evenodd" d="M1098.19 17.001C1098.19 16.3947 1098.8 15.7883 1099.86 15.7883C1101.07 15.7883 1101.98 16.3947 1102.21 16.4705V13.9692C1102.21 13.9692 1101.45 13.2112 1099.56 13.2112C1097.59 13.2112 1095.99 14.3482 1095.99 16.8494C1095.99 19.3507 1097.51 20.7151 1099.56 20.7151C1101.22 20.7151 1102.21 19.8055 1102.21 19.8055V17.4558C1101.91 17.6074 1101 18.2138 1099.86 18.2138C1098.65 18.2138 1098.19 17.6832 1098.19 17.001Z" fill="#101828"/>
<path fill-rule="evenodd" clip-rule="evenodd" d="M1107.44 13.2112C1105.92 13.2112 1105.39 14.6513 1105.24 14.8787C1105.09 15.1061 1105.09 15.2577 1104.94 15.2577C1104.79 15.2577 1104.86 14.9545 1104.94 14.7271C1105.09 14.3482 1105.32 13.4386 1105.32 12.2258C1105.32 11.3921 1105.24 11.1647 1105.24 11.1647H1102.97V20.4877H1105.54C1105.54 20.4877 1105.54 17.5316 1105.54 16.9252C1105.54 16.3189 1105.77 15.3335 1106.45 15.3335C1106.98 15.3335 1107.14 15.7125 1107.14 16.5463V20.4877H1109.71C1109.71 20.4877 1109.71 18.2896 1109.71 16.6978C1109.87 14.9545 1109.56 13.2112 1107.44 13.2112Z" fill="#101828"/>
<path fill-rule="evenodd" clip-rule="evenodd" d="M1110.7 13.4386V20.5635H1113.28V13.4386C1113.28 13.4386 1112.82 13.666 1111.99 13.666C1111.15 13.666 1110.7 13.4386 1110.7 13.4386Z" fill="#101828"/>
<path fill-rule="evenodd" clip-rule="evenodd" d="M1111.99 13.287C1112.87 13.287 1113.58 12.8119 1113.58 12.2258C1113.58 11.6398 1112.87 11.1647 1111.99 11.1647C1111.11 11.1647 1110.4 11.6398 1110.4 12.2258C1110.4 12.8119 1111.11 13.287 1111.99 13.287Z" fill="#101828"/>
<path fill-rule="evenodd" clip-rule="evenodd" d="M1089.32 20.5635H1091.9V13.4386C1091.9 13.4386 1091.45 13.666 1090.61 13.666C1089.78 13.666 1089.32 13.4386 1089.32 13.4386V20.5635Z" fill="#101828"/>
<path fill-rule="evenodd" clip-rule="evenodd" d="M1090.61 13.287C1091.49 13.287 1092.2 12.8119 1092.2 12.2258C1092.2 11.6398 1091.49 11.1647 1090.61 11.1647C1089.73 11.1647 1089.02 11.6398 1089.02 12.2258C1089.02 12.8119 1089.73 13.287 1090.61 13.287Z" fill="#101828"/>
<path d="M1130.03 13.2112C1128.66 13.2112 1128.06 14.1966 1127.83 14.8029C1127.68 15.1819 1127.68 15.2577 1127.53 15.2577C1127.37 15.2577 1127.53 14.9545 1127.6 14.5755C1127.75 13.8934 1127.68 13.3628 1127.68 13.3628H1125.78V22.4584H1128.36C1128.36 22.4584 1128.36 20.9425 1128.36 19.5781C1128.66 20.1087 1129.27 20.6393 1130.1 20.6393C1132 20.6393 1132.91 19.0475 1132.91 16.9252C1132.91 14.5755 1131.77 13.2112 1130.03 13.2112ZM1129.34 19.0475C1128.74 19.0475 1128.28 18.2896 1128.28 17.2284C1128.28 16.2431 1128.74 15.4093 1129.27 15.4093C1130.03 15.4093 1130.33 16.0915 1130.33 17.2284C1130.33 18.3654 1130.03 19.0475 1129.34 19.0475Z" fill="#101828"/>
<path fill-rule="evenodd" clip-rule="evenodd" d="M1060.98 15.4093H1061.51C1061.58 15.1819 1061.58 14.8787 1061.51 14.4997C1061.36 13.9692 1061.2 13.5902 1060.9 13.666C1060.6 13.7418 1060.52 14.1208 1060.67 14.7271C1060.75 14.9545 1060.9 15.2577 1060.98 15.4093Z" fill="#101828"/>
<path fill-rule="evenodd" clip-rule="evenodd" d="M1058.17 15.8641C1058.4 15.9399 1058.55 16.0157 1058.63 15.9399C1058.63 15.9399 1058.63 15.8641 1058.63 15.7125C1058.48 15.4851 1058.25 15.3335 1058.02 15.1819C1057.49 14.9545 1056.88 15.0303 1056.43 15.4093C1056.28 15.5609 1056.13 15.7125 1056.13 15.7883C1056.13 15.7883 1056.13 15.8641 1056.2 15.8641C1056.35 15.8641 1056.81 15.6367 1057.34 15.6367C1057.64 15.6367 1057.94 15.7125 1058.17 15.8641Z" fill="#101828"/>
<path fill-rule="evenodd" clip-rule="evenodd" d="M1057.72 16.0915C1057.41 16.1673 1057.26 16.2431 1057.11 16.3189C1057.03 16.3947 1056.96 16.4705 1056.96 16.5463V16.6221H1057.03C1057.11 16.6221 1057.26 16.5463 1057.26 16.5463C1057.72 16.3947 1057.94 16.3947 1058.25 16.4705H1058.48V16.3947C1058.4 16.2431 1058.1 16.0915 1057.72 16.0915Z" fill="#101828"/>
<path fill-rule="evenodd" clip-rule="evenodd" d="M1060.07 17.1526C1060.29 17.2284 1060.52 17.2284 1060.6 17.0768C1060.67 16.9252 1060.6 16.6978 1060.37 16.6221C1060.14 16.5463 1059.92 16.5463 1059.84 16.6978C1059.76 16.7736 1059.84 17.001 1060.07 17.1526Z" fill="#101828"/>
<path fill-rule="evenodd" clip-rule="evenodd" d="M1061.43 15.9399C1061.28 15.9399 1061.13 16.0915 1061.13 16.3947C1061.13 16.6221 1061.28 16.8494 1061.43 16.8494C1061.58 16.8494 1061.73 16.6978 1061.73 16.3947C1061.73 16.1673 1061.58 15.9399 1061.43 15.9399Z" fill="#101828"/>
<path fill-rule="evenodd" clip-rule="evenodd" d="M1049.91 20.1845C1049.83 20.1087 1049.83 20.1845 1049.76 20.1845C1049.68 20.1845 1049.68 20.1845 1049.61 20.1845C1049.46 20.1845 1049.38 20.1087 1049.3 20.0329C1049.23 19.8813 1049.23 19.7297 1049.3 19.5023C1049.3 19.5023 1049.3 19.4265 1049.38 19.4265C1049.53 19.1233 1049.76 18.5928 1049.46 18.138C1049.23 17.759 1048.92 17.5316 1048.55 17.4558C1048.17 17.38 1047.79 17.5316 1047.56 17.8348C1047.18 18.2138 1047.11 18.8202 1047.18 19.0475C1047.18 19.1233 1047.26 19.1233 1047.26 19.1233C1047.33 19.1233 1047.41 19.0475 1047.48 18.896C1047.48 18.896 1047.48 18.896 1047.48 18.8202C1047.48 18.7444 1047.56 18.5928 1047.64 18.4412C1047.71 18.2896 1047.86 18.2138 1048.09 18.138C1048.24 18.0622 1048.47 18.138 1048.62 18.2138C1048.85 18.3654 1049 18.7444 1048.85 19.0475C1048.77 19.1991 1048.7 19.5023 1048.7 19.7297C1048.77 20.2603 1049.08 20.4119 1049.3 20.4877C1049.61 20.4877 1049.76 20.3361 1049.83 20.2603C1049.99 20.1845 1049.99 20.1845 1049.91 20.1845Z" fill="#101828"/>
<path d="M1065.68 19.1991C1065.68 19.1991 1065.6 18.896 1065.52 18.5928C1065.45 18.2896 1065.37 18.0622 1065.37 18.0622C1065.75 17.5316 1065.75 17.001 1065.68 16.6978C1065.6 16.3189 1065.45 16.0157 1065.15 15.7125C1064.84 15.4093 1064.24 15.1061 1063.4 14.8787C1063.33 14.8787 1063.02 14.7271 1062.95 14.7271C1062.95 14.7271 1062.95 13.666 1062.87 13.2112C1062.87 12.908 1062.8 12.3774 1062.64 11.9227C1062.49 11.2405 1062.11 10.7099 1061.73 10.3309C1062.87 9.19398 1063.55 7.90543 1063.55 6.84428C1063.55 4.79777 1060.98 4.1156 1057.87 5.40414L1057.19 5.70733L1055.97 4.49458C1052.41 1.38692 1041.12 13.8176 1044.76 16.9252L1045.51 17.6074C1045.29 18.138 1045.21 18.7444 1045.29 19.4265C1045.36 20.2603 1045.82 21.0941 1046.5 21.7004C1047.18 22.3068 1048.02 22.6858 1048.85 22.6858C1050.21 25.945 1053.47 27.9158 1057.19 27.9916C1061.2 28.1431 1064.61 26.2482 1065.98 22.8374C1066.05 22.61 1066.43 21.5488 1066.43 20.5635C1066.59 19.6539 1066.05 19.1991 1065.68 19.1991ZM1049.23 21.7762C1049.08 21.7762 1049 21.7762 1048.85 21.7762C1047.64 21.7762 1046.35 20.6393 1046.2 19.3507C1046.04 17.9106 1046.8 16.8494 1048.09 16.5463C1048.24 16.5463 1048.47 16.4705 1048.62 16.4705C1049.38 16.5463 1050.44 17.0768 1050.67 18.6686C1050.9 20.1087 1050.59 21.5488 1049.23 21.7762ZM1047.94 15.7125C1047.11 15.8641 1046.42 16.3189 1045.97 16.9252C1045.74 16.6978 1045.21 16.3189 1045.13 16.0915C1044.45 14.8029 1045.89 12.2258 1046.88 10.7857C1049.38 7.22326 1053.32 4.49458 1055.14 5.02516C1055.44 5.10096 1056.43 6.23791 1056.43 6.23791C1056.43 6.23791 1054.61 7.22326 1052.94 8.6634C1050.67 10.4067 1048.92 12.9838 1047.94 15.7125ZM1060.67 21.2456C1060.67 21.1699 1060.67 21.0941 1060.67 21.0941C1060.67 21.0941 1058.78 21.3972 1056.96 20.7151C1057.19 20.1087 1057.64 20.3361 1058.48 20.3361C1059.92 20.4119 1061.13 20.1845 1062.11 19.9571C1062.95 19.7297 1064.01 19.2749 1064.84 18.5928C1065.15 19.1991 1065.22 19.8813 1065.22 19.8813C1065.22 19.8813 1065.45 19.8055 1065.6 19.9571C1065.75 20.0329 1065.9 20.2603 1065.83 20.8667C1065.68 21.9278 1065.22 22.7616 1064.46 23.5953C1064.01 24.1259 1063.48 24.5049 1062.8 24.8081C1062.49 24.9597 1062.11 25.1113 1061.73 25.2629C1058.85 26.1724 1055.97 25.1871 1055.06 22.989C1054.99 22.8374 1054.91 22.6858 1054.91 22.4584C1054.53 21.0183 1054.84 19.2749 1055.9 18.2138C1055.97 18.138 1056.05 18.0622 1056.05 17.9864C1056.05 17.9106 1055.97 17.8348 1055.97 17.759C1055.59 17.2284 1054.31 16.3189 1054.61 14.4997C1054.76 13.2112 1055.9 12.3016 1056.96 12.3774H1057.19C1057.64 12.3774 1058.02 12.4532 1058.4 12.4532C1059.01 12.4532 1059.61 12.3774 1060.22 11.8469C1060.45 11.6953 1060.6 11.4679 1060.9 11.4679H1061.2C1061.36 11.4679 1061.51 11.5437 1061.66 11.6195C1062.19 11.9985 1062.26 12.8322 1062.26 13.4386C1062.26 13.8176 1062.34 14.6513 1062.34 14.8787C1062.34 15.4093 1062.49 15.5609 1062.8 15.6367C1062.95 15.7125 1063.1 15.7125 1063.33 15.7883C1064.01 16.0157 1064.46 16.1673 1064.69 16.4705C1064.84 16.6221 1064.92 16.7736 1064.92 17.001C1064.99 17.6074 1064.46 18.3654 1063.02 19.0475C1061.43 19.8055 1059.46 19.9571 1058.17 19.8055C1058.1 19.8055 1057.72 19.7297 1057.72 19.7297C1056.66 19.5781 1056.05 20.9425 1056.66 21.9278C1057.03 22.5342 1058.17 22.9132 1059.31 22.9132C1061.89 22.9132 1063.86 21.7762 1064.61 20.8667C1064.61 20.8667 1064.61 20.8667 1064.69 20.7909C1064.69 20.7151 1064.69 20.7151 1064.61 20.7151C1064.01 21.0941 1061.36 22.7616 1058.48 22.3068C1058.48 22.3068 1058.1 22.231 1057.79 22.1552C1057.57 22.0794 1057.03 21.7762 1056.96 21.2456C1059.16 21.9278 1060.67 21.2456 1060.67 21.2456ZM1052.56 10.7857C1053.47 9.72455 1054.53 8.89079 1055.52 8.36021C1055.52 8.36021 1055.59 8.36021 1055.59 8.43601C1055.52 8.5876 1055.37 8.89079 1055.29 9.11818C1055.29 9.11818 1055.29 9.19398 1055.37 9.19398C1055.97 8.81499 1057.03 8.36021 1057.94 8.28442C1058.02 8.28442 1058.02 8.36021 1057.94 8.36021C1057.79 8.43601 1057.64 8.5876 1057.57 8.7392V8.81499C1058.25 8.81499 1059.16 9.04238 1059.76 9.42137C1059.84 9.42137 1059.76 9.49716 1059.76 9.49716C1058.85 9.26977 1057.34 9.11818 1055.82 9.49716C1054.38 9.80035 1053.32 10.3309 1052.56 10.7857C1052.49 10.8615 1052.56 10.9373 1052.56 10.7857Z" fill="#101828"/>
</svg>
