<svg width="113" height="28" viewBox="0 0 113 28" fill="none" xmlns="http://www.w3.org/2000/svg">
<path d="M30.4263 4.51921C29.4414 3.84044 28.1561 3.50024 26.5706 3.50024H20.432C19.946 3.50024 19.6774 3.74393 19.6264 4.23084L17.1328 19.9222C17.1069 20.0763 17.1454 20.2172 17.2479 20.3454C17.3498 20.4737 17.4779 20.5376 17.6315 20.5376H20.5472C21.0586 20.5376 21.3397 20.2945 21.3913 19.8069L22.0818 15.5766C22.107 15.3716 22.1969 15.2049 22.3504 15.0765C22.5038 14.9484 22.6957 14.8646 22.9259 14.8262C23.1561 14.7882 23.3731 14.7689 23.5781 14.7689C23.7825 14.7689 24.0254 14.7819 24.3072 14.8074C24.5883 14.8329 24.7675 14.8455 24.8443 14.8455C27.0437 14.8455 28.7702 14.2242 30.0236 12.9803C31.2765 11.737 31.9037 10.0129 31.9037 7.80735C31.9037 6.29465 31.4108 5.19868 30.4263 4.51885V4.51921ZM27.2614 9.23083C27.1331 10.1284 26.801 10.7178 26.2639 10.9999C25.7267 11.2824 24.9594 11.423 23.9621 11.423L22.6959 11.4613L23.3483 7.34607C23.3992 7.06428 23.5653 6.92322 23.8469 6.92322H24.5761C25.5986 6.92322 26.3408 7.07099 26.8012 7.36534C27.2614 7.66041 27.4149 8.28239 27.2614 9.23083Z" fill="white"/>
<path d="M95.2064 3.5H92.3677C92.0856 3.5 91.9195 3.64107 91.8689 3.92332L89.375 19.9226L89.3366 19.9995C89.3366 20.1283 89.3877 20.2495 89.4903 20.365C89.592 20.4802 89.7205 20.5379 89.8738 20.5379H92.4063C92.8914 20.5379 93.1601 20.2948 93.2121 19.8073L95.7056 4.0772V4.03899C95.7055 3.67986 95.5388 3.50047 95.2064 3.50047V3.5Z" fill="white"/>
<path d="M60.9078 9.69283C60.9078 9.56493 60.8565 9.4429 60.7548 9.32782C60.6522 9.21249 60.537 9.15442 60.4095 9.15442H57.4554C57.1734 9.15442 56.9432 9.28326 56.7645 9.53894L52.6979 15.5389L51.0098 9.76994C50.8813 9.36003 50.6003 9.15442 50.1659 9.15442H47.288C47.1598 9.15442 47.0448 9.21226 46.9431 9.32782C46.8405 9.4429 46.7896 9.56516 46.7896 9.69283C46.7896 9.74443 47.039 10.5005 47.5376 11.962C48.0363 13.4239 48.5734 15.0008 49.1489 16.6931C49.7245 18.3851 50.0248 19.283 50.0505 19.3847C47.953 22.2568 46.9047 23.7951 46.9047 23.9999C46.9047 24.3335 47.0707 24.5 47.4035 24.5H50.3576C50.6388 24.5 50.8689 24.3721 51.0483 24.1156L60.8316 9.96191C60.8824 9.91113 60.9078 9.82178 60.9078 9.69271V9.69283Z" fill="white"/>
<path d="M88.4166 9.15442H85.5007C85.1423 9.15442 84.9257 9.57762 84.8488 10.4239C84.183 9.39858 82.9689 8.88522 81.2037 8.88522C79.3622 8.88522 77.7954 9.57762 76.504 10.9622C75.2122 12.3468 74.5667 13.9754 74.5667 15.8469C74.5667 17.3599 75.0078 18.5649 75.89 19.4619C76.7725 20.3599 77.9552 20.8081 79.4393 20.8081C80.1809 20.8081 80.9354 20.6539 81.7027 20.3465C82.4699 20.0389 83.0705 19.6289 83.5061 19.1158C83.5061 19.1416 83.48 19.2566 83.4294 19.4616C83.3777 19.6671 83.3525 19.8214 83.3525 19.9231C83.3525 20.3338 83.5183 20.5384 83.8514 20.5384H86.4988C86.9842 20.5384 87.2659 20.2953 87.3423 19.8078L88.9156 9.76971C88.9408 9.61571 88.9026 9.47499 88.8004 9.34662C88.6976 9.21872 88.57 9.15442 88.4166 9.15442ZM83.41 16.7313C82.7577 17.3724 81.9711 17.6927 81.0504 17.6927C80.3083 17.6927 79.7078 17.4879 79.2472 17.0774C78.7865 16.6681 78.5564 16.1039 78.5564 15.3852C78.5564 14.4372 78.8761 13.6353 79.5158 12.9816C80.1544 12.3277 80.948 12.0009 81.8944 12.0009C82.61 12.0009 83.2047 12.2124 83.6784 12.6352C84.1511 13.0584 84.3884 13.6418 84.3884 14.3855C84.3882 15.3085 84.0621 16.0907 83.41 16.7313Z" fill="white"/>
<path d="M44.8327 9.15442H41.9169C41.5583 9.15442 41.3413 9.57762 41.2645 10.4239C40.5739 9.39858 39.3589 8.88522 37.6197 8.88522C35.7781 8.88522 34.2113 9.57762 32.9198 10.9622C31.628 12.3468 30.9824 13.9754 30.9824 15.8469C30.9824 17.3599 31.4237 18.5649 32.3062 19.4619C33.1886 20.3599 34.3712 20.8081 35.8549 20.8081C36.5707 20.8081 37.3129 20.6539 38.0801 20.3465C38.8474 20.0389 39.4613 19.6289 39.9217 19.1158C39.819 19.4232 39.7682 19.6926 39.7682 19.9231C39.7682 20.3338 39.9343 20.5384 40.2669 20.5384H42.9141C43.3997 20.5384 43.6814 20.2953 43.7582 19.8078L45.3311 9.76971C45.3563 9.61571 45.3181 9.47499 45.2161 9.34662C45.1137 9.21872 44.986 9.15442 44.8327 9.15442ZM39.826 16.7504C39.1736 17.3793 38.374 17.6927 37.4282 17.6927C36.686 17.6927 36.0913 17.4879 35.6441 17.0774C35.1962 16.6681 34.9726 16.1039 34.9726 15.3852C34.9726 14.4372 35.2921 13.6353 35.9318 12.9816C36.5708 12.3277 37.3638 12.0008 38.3105 12.0008C39.0263 12.0008 39.621 12.2124 40.0946 12.6352C40.5675 13.0584 40.8043 13.6418 40.8043 14.3855C40.8042 15.3342 40.4782 16.1229 39.826 16.7504Z" fill="white"/>
<path d="M74.0102 4.51921C73.0254 3.84044 71.7405 3.50024 70.1546 3.50024H64.0543C63.5426 3.50024 63.2611 3.74393 63.2103 4.23084L60.7165 19.9222C60.6906 20.0763 60.729 20.2172 60.8316 20.3454C60.9331 20.4737 61.0616 20.5376 61.2151 20.5376H64.3609C64.6678 20.5376 64.8723 20.3711 64.9749 20.0377L65.6655 15.5766C65.691 15.3716 65.7805 15.2049 65.9342 15.0765C66.0877 14.9484 66.2793 14.8646 66.5097 14.8262C66.7397 14.7882 66.9568 14.7689 67.1619 14.7689C67.3664 14.7689 67.6091 14.7819 67.8907 14.8074C68.1719 14.8329 68.3516 14.8455 68.4278 14.8455C70.6277 14.8455 72.3538 14.2242 73.6073 12.9803C74.8606 11.737 75.4872 10.0129 75.4872 7.80735C75.4873 6.29465 74.9947 5.19856 74.0102 4.51885V4.51921ZM70.0779 10.8459C69.5151 11.2305 68.6709 11.4227 67.5458 11.4227L66.3179 11.4612L66.9701 7.34583C67.0208 7.06417 67.1871 6.92286 67.4688 6.92286H68.1591C68.7219 6.92286 69.1694 6.94861 69.5024 6.99975C69.8343 7.05124 70.1546 7.21123 70.4614 7.48031C70.7686 7.74963 70.9218 8.14086 70.9218 8.6534C70.9218 9.73068 70.6402 10.4611 70.0779 10.8459Z" fill="white"/>
</svg>
