<svg width="129" height="32" viewBox="0 0 129 32" fill="none" xmlns="http://www.w3.org/2000/svg">
<path d="M53.8494 12.5683H57.0209V22.5518H53.8494V12.5683Z" fill="#E60023"/>
<path d="M57.6831 12.5682H60.7378V13.9332H60.7961C61.5355 12.8607 62.4889 12.2758 63.8704 12.2758C66.0495 12.2758 67.3336 13.8357 67.3336 16.0586V22.5518H64.1622V16.7021C64.1622 15.6491 63.6369 14.9276 62.6057 14.9276C61.5551 14.9276 60.8545 15.8051 60.8545 17.0335V22.5518H57.6831V12.5682Z" fill="#E60023"/>
<path d="M57.3375 9.89724C57.3375 8.84422 56.4857 7.99069 55.4351 7.99069C54.3845 7.99069 53.5327 8.84422 53.5327 9.89724C53.5327 10.9502 54.3845 11.8037 55.4351 11.8037C56.4857 11.8037 57.3375 10.9502 57.3375 9.89724Z" fill="#E60023"/>
<path d="M89.6389 12.4241C89.5484 12.4159 89.4446 12.4122 89.3232 12.4122C88.1169 12.4122 87.2998 12.9387 86.5993 14.1282H86.541V12.5683H83.5057V22.5517H86.6771V18.067C86.6771 15.989 87.8254 15.0261 89.6389 15.1941V12.4241Z" fill="#E60023"/>
<path d="M105.202 16.2535C103.938 16.0196 102.809 15.9221 102.809 15.2202C102.809 14.5961 103.412 14.3037 104.191 14.3037C105.066 14.3037 105.669 14.5766 105.786 15.4736H108.705C108.549 13.5042 107.031 12.2757 104.21 12.2757C101.856 12.2757 99.9101 13.3677 99.9101 15.4736C99.9101 17.8134 101.759 18.2814 103.49 18.574C104.813 18.808 106.02 18.9055 106.02 19.8024C106.02 20.4459 105.416 20.7969 104.463 20.7969C103.507 20.7969 102.874 20.3913 102.68 19.5685H99.6579C99.8804 21.6208 101.678 22.8638 104.482 22.8638C107.09 22.8638 109.016 21.7328 109.016 19.549C109.016 16.9945 106.953 16.546 105.202 16.2535Z" fill="#E60023"/>
<path d="M94.5586 14.5376C95.5898 14.5376 96.3291 15.2981 96.4459 16.4876H92.5156C92.7296 15.2981 93.3523 14.5376 94.5586 14.5376ZM94.7337 20.5628C93.43 20.5628 92.6907 19.7244 92.4961 18.3789H99.6562C99.6757 16.3511 99.0921 14.6156 97.9051 13.5237C97.049 12.7438 95.9205 12.2758 94.5001 12.2758C91.4649 12.2758 89.3831 14.5571 89.3831 17.5406C89.3831 20.5628 91.4066 22.8443 94.6947 22.8443C95.9593 22.8443 96.9712 22.5128 97.8078 21.9278C98.6834 21.3234 99.2671 20.4654 99.481 19.5685H96.3875C96.115 20.1924 95.5703 20.5628 94.7337 20.5628Z" fill="#E60023"/>
<path d="M114.601 20.1976C114.454 20.2034 114.257 20.212 114.076 20.212C113.395 20.212 112.967 20.0169 112.967 19.2369V14.5571H114.601V12.5682H112.967V9.40938H109.873V12.5682H108.9V14.5571H109.873V19.9194C109.873 22.0644 111.196 22.6688 113.045 22.6688C113.75 22.6688 114.283 22.6159 114.601 22.5536V20.1976Z" fill="#E60023"/>
<path d="M72.9973 20.2021C72.8707 20.207 72.7247 20.212 72.5883 20.212C71.9074 20.212 71.4792 20.0169 71.4792 19.2369V14.5571H72.9973V12.5682H71.4792V9.40938H68.3857V12.5682H67.3541V14.5571H68.3857V19.9194C68.3857 22.0644 69.7087 22.6688 71.5571 22.6688C72.1825 22.6688 72.6722 22.6271 72.9973 22.5742V20.2021Z" fill="#E60023"/>
<path d="M79.9052 16.4876C79.7885 15.2981 79.0491 14.5376 78.0179 14.5376C76.8116 14.5376 76.189 15.2981 75.9749 16.4876H79.9052ZM72.8425 17.5405C72.8425 14.5571 74.9243 12.2758 77.9596 12.2758C79.3798 12.2758 80.5084 12.7438 81.3645 13.5237C82.5513 14.6157 83.135 16.3511 83.1155 18.379H75.9556C76.15 19.7244 76.8894 20.5629 78.1931 20.5629C79.0296 20.5629 79.5745 20.1924 79.8467 19.5685H82.9404C82.7264 20.4654 82.1427 21.3233 81.2671 21.9279C80.4306 22.5128 79.4188 22.8443 78.1541 22.8443C74.8659 22.8443 72.8425 20.5629 72.8425 17.5405Z" fill="#E60023"/>
<path d="M48.3417 15.1617C49.5869 15.1617 50.2874 14.4207 50.2874 13.3091C50.2874 12.1978 49.5674 11.5153 48.3417 11.5153H45.9095V15.1617H48.3417ZM42.6987 8.60992H48.206C49.8987 8.60992 51.1439 9.07786 52 9.89686C52.8951 10.7352 53.401 11.9248 53.401 13.3287C53.401 16 51.5526 17.8915 48.6924 17.8915H45.9095V22.5518H42.6987V8.60992Z" fill="#E60023"/>
<path d="M38.3464 16C38.3464 22.6274 32.9855 28 26.3725 28C19.7596 28 14.3987 22.6274 14.3987 16C14.3987 9.37252 19.7596 4 26.3725 4C32.9855 4 38.3464 9.37252 38.3464 16Z" fill="white"/>
<path d="M26.3725 4C19.7596 4 14.3987 9.37252 14.3987 16C14.3987 21.0838 17.5534 25.4283 22.0076 27.1767C21.9029 26.2273 21.8083 24.7671 22.0491 23.7306C22.2667 22.7941 23.4531 17.7659 23.4531 17.7659C23.4531 17.7659 23.095 17.047 23.095 15.9842C23.095 14.3156 24.06 13.0699 25.2616 13.0699C26.2832 13.0699 26.7766 13.8386 26.7766 14.7603C26.7766 15.7899 26.1225 17.3292 25.785 18.7557C25.5029 19.9501 26.3826 20.9241 27.5581 20.9241C29.6862 20.9241 31.3222 18.6753 31.3222 15.4291C31.3222 12.5558 29.2621 10.547 26.3206 10.547C22.9136 10.547 20.9138 13.108 20.9138 15.7546C20.9138 16.786 21.3103 17.892 21.805 18.4932C21.9028 18.612 21.9172 18.7161 21.888 18.8374C21.7971 19.2164 21.5951 20.0315 21.5555 20.1983C21.5032 20.4179 21.3819 20.4646 21.155 20.3587C19.6595 19.6611 18.7245 17.4699 18.7245 15.7099C18.7245 11.9245 21.4689 8.44813 26.6361 8.44813C30.7899 8.44813 34.0178 11.4145 34.0178 15.3788C34.0178 19.5144 31.4159 22.8428 27.8045 22.8428C26.5911 22.8428 25.4505 22.2111 25.06 21.4649C25.06 21.4649 24.4596 23.756 24.314 24.3175C24.0437 25.3598 23.314 26.6663 22.8259 27.4634C23.9462 27.811 25.1382 28 26.3725 28C32.9855 28 38.3464 22.6274 38.3464 16C38.3464 9.37252 32.9855 4 26.3725 4Z" fill="#E60023"/>
</svg>
