<svg width="21" height="24" viewBox="0 0 21 24" fill="none" xmlns="http://www.w3.org/2000/svg">
<path d="M20.1842 18.7033C19.8212 19.5418 19.3916 20.3136 18.8938 21.0232C18.2153 21.9906 17.6598 22.6602 17.2317 23.032C16.568 23.6424 15.8569 23.955 15.0954 23.9728C14.5488 23.9728 13.8896 23.8172 13.1222 23.5017C12.3523 23.1876 11.6447 23.032 10.9978 23.032C10.3193 23.032 9.59162 23.1876 8.81327 23.5017C8.03374 23.8172 7.40576 23.9816 6.92563 23.9979C6.19543 24.0291 5.4676 23.7076 4.74111 23.032C4.27742 22.6276 3.69744 21.9343 3.00265 20.9521C2.25719 19.9033 1.64432 18.687 1.16419 17.3004C0.649981 15.8026 0.392212 14.3523 0.392212 12.9482C0.392212 11.3398 0.739756 9.95259 1.43588 8.79011C1.98298 7.85636 2.7108 7.11979 3.62174 6.57906C4.53267 6.03834 5.51694 5.76279 6.5769 5.74516C7.15688 5.74516 7.91745 5.92456 8.86261 6.27715C9.80509 6.63091 10.4103 6.81032 10.6756 6.81032C10.8739 6.81032 11.5462 6.60054 12.6859 6.18233C13.7636 5.79449 14.6732 5.63391 15.4184 5.69716C17.4376 5.86012 18.9546 6.6561 19.9634 8.09013C18.1576 9.18432 17.2643 10.7169 17.282 12.6829C17.2983 14.2142 17.8539 15.4886 18.9457 16.5004C19.4405 16.97 19.9931 17.333 20.6079 17.5907C20.4745 17.9774 20.3338 18.3477 20.1842 18.7033ZM15.5532 0.480137C15.5532 1.68041 15.1147 2.8011 14.2407 3.8384C13.1859 5.07155 11.9101 5.78412 10.5266 5.67168C10.5089 5.52769 10.4987 5.37614 10.4987 5.21688C10.4987 4.06462 11.0003 2.83147 11.8911 1.82321C12.3358 1.3127 12.9014 0.888228 13.5873 0.549615C14.2718 0.216055 14.9192 0.031589 15.528 0C15.5458 0.160458 15.5532 0.320926 15.5532 0.480121V0.480137Z" fill="white"/>
</svg>
