<svg width="113" height="28" viewBox="0 0 113 28" fill="none" xmlns="http://www.w3.org/2000/svg">
<path d="M43.1099 8.46981C40.3183 8.46981 38.3055 10.6301 38.3055 14.5167C38.3055 18.4335 40.288 20.5938 43.1807 20.5938C45.7701 20.5938 47.4188 19.0392 47.4693 16.576H43.4842V14.1331H50.4936V16.2025C50.4936 20.6544 47.4289 23.4103 43.1605 23.4103C38.3965 23.4103 35.1599 20.0184 35.1599 14.547C35.1599 8.98465 38.5483 5.66343 43.0695 5.66343C46.8827 5.66343 49.8159 8.02564 50.352 11.4175H47.1659C46.6096 9.58025 45.1935 8.46981 43.1099 8.46981ZM52.5974 10.2263H55.6419V23.168H52.5974V10.2263ZM54.1247 8.16697C53.1537 8.16697 52.3648 7.44013 52.3648 6.52149C52.3648 5.60286 53.1638 4.85583 54.1348 4.85583C55.1058 4.85583 55.8948 5.61295 55.8948 6.52149C55.8948 7.43004 55.1058 8.16697 54.1348 8.16697H54.1247ZM64.7855 12.5784H62.2265V19.2815C62.2265 20.5131 62.8435 20.7856 63.6122 20.7856C63.6864 20.7856 63.7606 20.7822 63.8347 20.7755C63.9089 20.7688 63.9831 20.7587 64.0573 20.7452C64.1314 20.7318 64.2056 20.7217 64.2798 20.7149C64.354 20.7015 64.4281 20.6847 64.5023 20.6645L65.0182 23.0469C64.8698 23.1007 64.7215 23.1445 64.5731 23.1781C64.4248 23.2118 64.2764 23.242 64.1281 23.269C63.9797 23.2959 63.828 23.3161 63.6729 23.3295C63.5246 23.343 63.3728 23.3531 63.2178 23.3598C60.9319 23.4305 59.1618 22.2292 59.1719 19.7862V12.5885H57.3412V10.2263H59.1719V7.107H62.2265V10.2263H64.7855V12.5784ZM67.1422 5.89561H70.2676V20.5433H77.8637V23.168H67.1422V5.89561ZM79.391 19.5338C79.391 16.6164 81.7881 15.8694 84.2966 15.5968C86.5825 15.3545 87.5029 15.3142 87.5029 14.4359V14.3854C87.5029 13.1135 86.7241 12.3866 85.308 12.3866C83.8111 12.3866 82.9513 13.1438 82.658 14.0321L79.8057 13.6182C80.4834 11.256 82.567 10.0446 85.2878 10.0446C87.7558 10.0446 90.5474 11.0743 90.5474 14.4965V23.168H87.6142V21.3913H87.513C86.9567 22.4816 85.743 23.4305 83.7099 23.4305C81.242 23.4305 79.3809 22.0879 79.391 19.5338ZM84.7113 21.1894C86.5521 21.1894 87.7153 19.9679 87.7052 18.5244V17C87.3107 17.3231 85.7126 17.525 84.9034 17.636C83.5481 17.8278 82.5265 18.3124 82.5265 19.4935C82.5265 20.614 83.4368 21.1894 84.7113 21.1894ZM92.7928 5.89561H95.8373V12.3564H95.9688C96.4341 11.4175 97.3848 10.0446 99.6707 10.0446C102.665 10.0446 105.011 12.3967 105.011 16.7073C105.011 20.9774 102.725 23.4002 99.6809 23.4002C97.4557 23.4002 96.4543 22.0778 95.9688 21.1288H95.7969V23.168H92.7928V5.89561ZM98.8312 20.8967C100.844 20.8967 101.906 19.1099 101.906 16.6972C101.906 14.2845 100.854 12.5482 98.8312 12.5482C96.869 12.5482 95.7867 14.1734 95.7867 16.6972C95.7867 19.2108 96.8791 20.8967 98.8312 20.8967Z" fill="white"/>
<path d="M29.7688 13.547C29.7992 14.1426 29.7284 14.7281 29.5564 15.3035C29.3946 15.8688 29.1417 16.414 28.8079 16.8985C28.4742 17.3932 28.0595 17.8273 27.5841 18.1806L27.574 18.1907L23.0325 21.5927L20.7871 23.2886L19.4317 24.3183C19.3508 24.3789 19.2631 24.4226 19.1687 24.4495C19.0743 24.4832 18.9766 24.5 18.8754 24.5C18.7743 24.5 18.6765 24.4832 18.5821 24.4495C18.4877 24.4226 18.4034 24.3789 18.3292 24.3183L16.9638 23.2886L14.7284 21.5927L10.2173 18.2109L10.1971 18.1907L10.1769 18.1806C9.71159 17.8273 9.29689 17.3932 8.96311 16.8985C8.61922 16.414 8.36635 15.8688 8.20452 15.3035C8.04268 14.7281 7.97188 14.1426 7.99211 13.547C8.02245 12.9514 8.14383 12.3659 8.35624 11.8107L8.38658 11.74L11.3502 3.99722C11.3636 3.95684 11.3805 3.91983 11.4007 3.88618C11.421 3.85253 11.4446 3.81888 11.4715 3.78523C11.4985 3.75158 11.5255 3.7213 11.5524 3.69438C11.5862 3.66746 11.6199 3.6439 11.6536 3.62371C11.7547 3.56314 11.8761 3.52276 11.9975 3.50257C12.1189 3.49248 12.2402 3.51267 12.3515 3.55305C12.4729 3.59343 12.574 3.66409 12.6549 3.75495C12.7359 3.8458 12.7965 3.95684 12.8269 4.07798L14.8296 10.2056H22.9314L24.9341 4.07798C24.9745 3.95684 25.0251 3.8458 25.1161 3.75495C25.197 3.66409 25.2982 3.59343 25.4094 3.55305C25.5308 3.51267 25.6522 3.49248 25.7736 3.50257C25.8949 3.52276 26.0062 3.56314 26.1175 3.62371C26.1512 3.6439 26.1815 3.66746 26.2085 3.69438C26.2422 3.7213 26.2726 3.75158 26.2995 3.78523L26.3602 3.88618C26.3804 3.91983 26.4007 3.95684 26.4209 3.99722L29.3845 11.7299L29.4148 11.8107C29.6272 12.3659 29.7486 12.9514 29.7688 13.547Z" fill="white"/>
<path d="M29.7688 13.547C29.7992 14.1426 29.7283 14.7282 29.5665 15.3036C29.3946 15.8689 29.1417 16.414 28.8079 16.8985C28.4742 17.3932 28.0595 17.8273 27.5841 18.1806L27.574 18.1907L23.0325 21.5927L18.8855 18.4532L25.3993 13.5269C25.6892 13.3048 25.9927 13.1029 26.3096 12.9212C26.6265 12.7328 26.9536 12.5645 27.2907 12.4165C27.6279 12.2617 27.9718 12.1271 28.3224 12.0127C28.6663 11.8983 29.0204 11.804 29.3845 11.7299L29.4148 11.8107C29.6272 12.3659 29.7486 12.9514 29.7688 13.547Z" fill="#F1F2F4"/>
<path d="M18.8855 18.4532L23.0325 21.5927L20.7871 23.2886L19.4317 24.3183C19.3508 24.3789 19.2631 24.4226 19.1687 24.4495C19.0743 24.4832 18.9766 24.5 18.8754 24.5C18.7743 24.5 18.6765 24.4832 18.5821 24.4495C18.4877 24.4226 18.4034 24.3789 18.3292 24.3183L16.9638 23.2886L14.7284 21.5927L18.8855 18.4532Z" fill="#D0D5DD"/>
<path d="M18.8754 18.4534L14.7284 21.5927L10.2173 18.2109L10.1971 18.1907L10.1769 18.1806C9.71159 17.8273 9.29689 17.3932 8.96311 16.8985C8.61922 16.414 8.36635 15.8688 8.20452 15.3035C8.04268 14.7281 7.97188 14.1426 7.99211 13.547C8.02245 12.9514 8.14383 12.3659 8.35624 11.8107L8.38658 11.74C8.74396 11.8141 9.09797 11.9052 9.44861 12.0128C9.79925 12.1273 10.1431 12.2619 10.4803 12.4166C10.8107 12.5647 11.1344 12.7329 11.4513 12.9214C11.7682 13.1098 12.075 13.3117 12.3717 13.5271L18.8754 18.4534Z" fill="#F1F2F4"/>
</svg>
