<svg width="49" height="48" viewBox="0 0 49 48" fill="none" xmlns="http://www.w3.org/2000/svg">
<rect x="0.5" width="48" height="48" rx="24" fill="#437EF7"/>
<path d="M32.5 19.9999C35.4455 19.9999 37.8333 17.6121 37.8333 14.6666C37.8333 11.7211 35.4455 9.33325 32.5 9.33325C29.5544 9.33325 27.1666 11.7211 27.1666 14.6666C27.1666 15.1695 27.2362 15.6562 27.3664 16.1176L20.2887 20.2462C19.3222 19.2708 17.9816 18.6666 16.5 18.6666C13.5544 18.6666 11.1666 21.0544 11.1666 23.9999C11.1666 26.9454 13.5544 29.3333 16.5 29.3333C17.9816 29.3333 19.3222 28.7291 20.2887 27.7536L27.3664 31.8823C27.2362 32.3436 27.1666 32.8303 27.1666 33.3333C27.1666 36.2788 29.5544 38.6666 32.5 38.6666C35.4455 38.6666 37.8333 36.2788 37.8333 33.3333C37.8333 30.3877 35.4455 27.9999 32.5 27.9999C31.0183 27.9999 29.6777 28.6041 28.7113 29.5796L21.6335 25.4509C21.7637 24.9896 21.8333 24.5029 21.8333 23.9999C21.8333 23.497 21.7637 23.0103 21.6335 22.5489L28.7113 18.4203C29.6777 19.3957 31.0183 19.9999 32.5 19.9999Z" fill="white"/>
</svg>
