<svg width="49" height="48" viewBox="0 0 49 48" fill="none" xmlns="http://www.w3.org/2000/svg">
<rect x="0.5" width="48" height="48" rx="24" fill="#437EF7"/>
<path d="M25.8334 19.8319C28.1337 19.2398 29.8334 17.1517 29.8334 14.6666C29.8334 11.7211 27.4455 9.33325 24.5 9.33325C21.5545 9.33325 19.1667 11.7211 19.1667 14.6666C19.1667 17.1517 20.8664 19.2398 23.1667 19.8319V22.6666H19.1667C16.9575 22.6666 15.1667 24.4574 15.1667 26.6666V28.1679C12.8664 28.76 11.1667 30.8481 11.1667 33.3333C11.1667 36.2788 13.5545 38.6666 16.5 38.6666C19.4455 38.6666 21.8334 36.2788 21.8334 33.3333C21.8334 30.8481 20.1337 28.76 17.8334 28.1679V26.6666C17.8334 25.9302 18.4303 25.3333 19.1667 25.3333H29.8334C30.5697 25.3333 31.1667 25.9302 31.1667 26.6666V28.1679C28.8664 28.76 27.1667 30.8481 27.1667 33.3333C27.1667 36.2788 29.5545 38.6666 32.5 38.6666C35.4455 38.6666 37.8334 36.2788 37.8334 33.3333C37.8334 30.8481 36.1337 28.76 33.8334 28.1679V26.6666C33.8334 24.4574 32.0425 22.6666 29.8334 22.6666H25.8334V19.8319Z" fill="white"/>
</svg>
