<svg width="48" height="48" viewBox="0 0 48 48" fill="none" xmlns="http://www.w3.org/2000/svg">
<rect width="48" height="48" rx="24" fill="#437EF7"/>
<path d="M24 10.6667C18.8454 10.6667 14.6667 14.8454 14.6667 20.0001C14.6667 21.3815 14.9677 22.6962 15.5089 23.8792C15.846 24.6161 16.2279 25.3403 16.5931 26.03L16.6329 26.1052C16.9895 26.7786 17.3291 27.4198 17.6316 28.0648C18.2601 29.4048 18.6667 30.6373 18.6667 31.8809C18.6667 32.6831 19.317 33.3334 20.1192 33.3334H27.8808C28.683 33.3334 29.3334 32.6831 29.3334 31.8809C29.3334 30.6373 29.7399 29.4048 30.3685 28.0648C30.671 27.4199 31.0105 26.7787 31.3671 26.1053L31.407 26.03C31.7721 25.3403 32.1541 24.6161 32.4912 23.8792C33.0324 22.6962 33.3334 21.3815 33.3334 20.0001C33.3334 14.8454 29.1547 10.6667 24 10.6667Z" fill="white"/>
<path d="M20 34.6667C19.2636 34.6667 18.6667 35.2637 18.6667 36.0001C18.6667 36.7365 19.2636 37.3334 20 37.3334H28C28.7364 37.3334 29.3334 36.7365 29.3334 36.0001C29.3334 35.2637 28.7364 34.6667 28 34.6667H20Z" fill="white"/>
</svg>
