<svg width="121" height="24" viewBox="0 0 121 24" fill="none" xmlns="http://www.w3.org/2000/svg">
<path d="M29.5568 5.25309H32.3961V16.0713H37.6585V18.513H29.5568V5.25309Z" fill="#2E343F"/>
<path d="M38.9367 16.2607C38.502 15.4597 38.2831 14.5594 38.3016 13.6482C38.2831 12.7371 38.502 11.8368 38.9367 11.0358C39.35 10.2873 39.9759 9.67816 40.7353 9.28522C41.5768 8.87951 42.4989 8.66882 43.4331 8.66882C44.3673 8.66882 45.2895 8.87951 46.131 9.28522C46.8892 9.67972 47.5147 10.2885 47.9296 11.0358C48.3622 11.8375 48.5801 12.7374 48.562 13.6482C48.5823 14.5627 48.3643 15.4667 47.9296 16.2714C47.5119 17.0139 46.8869 17.6185 46.131 18.0113C45.2895 18.417 44.3673 18.6277 43.4331 18.6277C42.4989 18.6277 41.5768 18.417 40.7353 18.0113C39.9759 17.6183 39.35 17.0092 38.9367 16.2607ZM45.8562 13.6482C45.8862 12.9151 45.6502 12.1957 45.1917 11.6228C44.9759 11.3702 44.7054 11.1699 44.4007 11.0372C44.096 10.9045 43.7652 10.8429 43.4331 10.857C43.1014 10.8436 42.771 10.9067 42.4674 11.0414C42.1639 11.176 41.8954 11.3786 41.6826 11.6335C41.2268 12.2073 40.9945 12.9269 41.0288 13.6589C40.9945 14.3909 41.2268 15.1105 41.6826 15.6843C41.8954 15.9392 42.1639 16.1418 42.4674 16.2765C42.771 16.4111 43.1014 16.4742 43.4331 16.4609C43.7669 16.4723 44.0988 16.4074 44.4036 16.271C44.7084 16.1345 44.978 15.9302 45.1917 15.6737C45.6502 15.1008 45.8862 14.3814 45.8562 13.6482Z" fill="#2E343F"/>
<path d="M50.2939 16.2607C49.8592 15.4597 49.6403 14.5594 49.6588 13.6483C49.6403 12.7371 49.8592 11.8368 50.2939 11.0358C50.7072 10.2873 51.3331 9.67817 52.0925 9.28523C52.9335 8.87957 53.8552 8.66889 54.789 8.66889C55.7228 8.66889 56.6445 8.87957 57.4855 9.28523C58.2449 9.67817 58.8708 10.2873 59.2841 11.0358C59.7188 11.8368 59.9377 12.7371 59.9192 13.6483C59.9399 14.5631 59.721 15.4674 59.2841 16.2714C58.868 17.015 58.2426 17.62 57.4855 18.0113C56.6445 18.417 55.7228 18.6276 54.789 18.6276C53.8552 18.6276 52.9335 18.417 52.0925 18.0113C51.3331 17.6183 50.7072 17.0092 50.2939 16.2607ZM57.2134 13.6483C57.2464 12.9164 57.0143 12.1972 56.5596 11.6229C56.336 11.3782 56.064 11.1828 55.7607 11.0491C55.4575 10.9154 55.1297 10.8464 54.7984 10.8464C54.467 10.8464 54.1392 10.9154 53.836 11.0491C53.5327 11.1828 53.2607 11.3782 53.0371 11.6229C52.5872 12.1991 52.3599 12.9181 52.3967 13.6483C52.3629 14.3798 52.5941 15.0989 53.0478 15.6737C53.2713 15.9183 53.5434 16.1137 53.8466 16.2474C54.1499 16.3811 54.4776 16.4501 54.809 16.4501C55.1404 16.4501 55.4682 16.3811 55.7714 16.2474C56.0747 16.1137 56.3467 15.9183 56.5703 15.6737C57.0211 15.0978 57.2494 14.3787 57.2134 13.6483Z" fill="#2E343F"/>
<path d="M64.0634 5.25309V12.9278L67.8874 8.78354H70.8789L67.4098 12.5889L71.0763 18.513H67.9835L65.5231 14.5769L64.0634 16.146V18.513H61.3949V5.25309H64.0634Z" fill="#2E343F"/>
<path d="M74.3613 16.3168C74.7921 16.6027 75.3016 16.7464 75.8183 16.7277C76.2784 16.7514 76.737 16.6597 77.1526 16.4609C77.3057 16.3916 77.435 16.2787 77.5242 16.1363C77.6134 15.9939 77.6587 15.8283 77.6542 15.6603C77.6624 15.5545 77.6462 15.4483 77.6069 15.3498C77.5676 15.2512 77.5062 15.163 77.4274 15.0919C77.2376 14.9527 77.017 14.8612 76.7843 14.8251C76.5175 14.769 76.0531 14.7023 75.4207 14.6276C74.6985 14.5408 73.9845 14.3954 73.2859 14.1926C72.7647 14.0428 72.2937 13.7551 71.9223 13.3601C71.5656 12.938 71.3824 12.3963 71.4099 11.8443C71.403 11.2429 71.5901 10.6552 71.9436 10.1685C72.3161 9.66256 72.8239 9.27219 73.4086 9.04239C74.1008 8.7664 74.8411 8.63122 75.5861 8.64478C76.9115 8.65723 77.9789 8.94099 78.7884 9.49604C79.1771 9.74728 79.4996 10.0885 79.7286 10.4907C79.9576 10.893 80.0863 11.3444 80.1039 11.807H77.5689C77.5485 11.6228 77.4859 11.4459 77.3859 11.2899C77.2859 11.1339 77.1513 11.0031 76.9925 10.9077C76.5929 10.6599 76.128 10.5381 75.6582 10.5581C75.2334 10.5384 74.8114 10.6363 74.4387 10.841C74.2996 10.913 74.1828 11.0216 74.1009 11.1552C74.0191 11.2888 73.9753 11.4422 73.9743 11.5988C73.9683 11.6977 73.9876 11.7965 74.0306 11.8857C74.0736 11.9749 74.1388 12.0517 74.2199 12.1085C74.4146 12.2351 74.6337 12.3196 74.863 12.3567C75.1298 12.4047 75.5701 12.4634 76.1972 12.5248C77.5101 12.6778 78.5171 12.9589 79.218 13.3681C79.9172 13.779 80.2667 14.4808 80.2667 15.4789C80.2759 16.0812 80.0792 16.6687 79.709 17.144C79.3026 17.6486 78.7654 18.0317 78.1559 18.2515C77.4202 18.5238 76.64 18.6559 75.8557 18.6411C74.5054 18.6411 73.4077 18.3413 72.5627 17.7418C72.161 17.4689 71.8303 17.1039 71.5982 16.6774C71.3661 16.2508 71.2393 15.7749 71.2284 15.2894H73.7449C73.763 15.4962 73.8279 15.6961 73.9347 15.8741C74.0415 16.0521 74.1874 16.2035 74.3613 16.3168Z" fill="#2E343F"/>
<path d="M86.4177 18.6277C85.4966 18.6486 84.5851 18.4365 83.7678 18.0113C83.0242 17.6135 82.4151 17.0043 82.0173 16.2607C81.5969 15.4551 81.3858 14.5568 81.4035 13.6483C81.3833 12.7369 81.5945 11.8354 82.0173 11.0278C82.4192 10.2856 83.0321 9.67923 83.7785 9.28523C84.6021 8.859 85.5199 8.64701 86.447 8.6688C87.7475 8.6688 88.8069 9.00059 89.6252 9.66416C90.4623 10.356 91.0043 11.3407 91.1409 12.4181H88.3683C88.2763 11.971 88.0366 11.5678 87.6879 11.2733C87.3299 10.9823 86.8787 10.8306 86.4177 10.8463C86.0986 10.8355 85.7814 10.9003 85.4921 11.0352C85.2027 11.1701 84.9493 11.3715 84.7525 11.6229C84.3154 12.2049 84.0946 12.9211 84.1281 13.6483C84.0946 14.3754 84.3154 15.0916 84.7525 15.6737C84.9482 15.927 85.2011 16.1304 85.4906 16.2672C85.78 16.404 86.0977 16.4704 86.4177 16.4609C86.8883 16.4774 87.349 16.3229 87.7146 16.0259C88.0709 15.7189 88.3088 15.2969 88.387 14.8331H91.1329C91.0082 15.9222 90.4693 16.9216 89.6279 17.6244C88.8006 18.2933 87.7306 18.6277 86.4177 18.6277Z" fill="#2E343F"/>
<path d="M92.6913 16.2607C92.2567 15.4597 92.0378 14.5594 92.0562 13.6483C92.0378 12.7371 92.2567 11.8368 92.6913 11.0358C93.1047 10.2873 93.7306 9.67817 94.4899 9.28523C95.331 8.87957 96.2527 8.66889 97.1865 8.66889C98.1202 8.66889 99.042 8.87957 99.883 9.28523C100.642 9.67817 101.268 10.2873 101.682 11.0358C102.116 11.8368 102.335 12.7371 102.317 13.6483C102.337 14.5631 102.118 15.4674 101.682 16.2714C101.269 17.0131 100.648 17.6179 99.8963 18.0113C99.0553 18.417 98.1336 18.6276 97.1998 18.6276C96.266 18.6276 95.3443 18.417 94.5033 18.0113C93.739 17.6205 93.1082 17.0111 92.6913 16.2607ZM99.6108 13.6483C99.6439 12.9164 99.4117 12.1972 98.957 11.6229C98.7335 11.3782 98.4614 11.1828 98.1582 11.0491C97.855 10.9154 97.5272 10.8464 97.1958 10.8464C96.8644 10.8464 96.5367 10.9154 96.2334 11.0491C95.9302 11.1828 95.6581 11.3782 95.4346 11.6229C94.9808 12.1976 94.7497 12.9168 94.7835 13.6483C94.7497 14.3798 94.9808 15.0989 95.4346 15.6737C95.6581 15.9183 95.9302 16.1137 96.2334 16.2474C96.5367 16.3811 96.8644 16.4501 97.1958 16.4501C97.5272 16.4501 97.855 16.3811 98.1582 16.2474C98.4614 16.1137 98.7335 15.9183 98.957 15.6737C99.4127 15.0996 99.6458 14.3804 99.6135 13.6483H99.6108Z" fill="#2E343F"/>
<path d="M112.956 18.513H110.592L110.344 17.3388C110.002 17.7629 109.565 18.1006 109.069 18.3245C108.572 18.5485 108.03 18.6523 107.486 18.6277C106.975 18.6472 106.465 18.5643 105.986 18.3837C105.508 18.2031 105.07 17.9286 104.7 17.5763C103.988 16.8772 103.632 15.7066 103.632 14.0645V8.78353H106.301V13.7416C106.301 14.6276 106.456 15.2921 106.765 15.7404C106.926 15.9655 107.142 16.1455 107.393 16.2632C107.643 16.381 107.919 16.4325 108.195 16.4128C108.496 16.4263 108.794 16.3652 109.065 16.2347C109.335 16.1043 109.569 15.9088 109.746 15.6656C110.114 15.1666 110.296 14.4675 110.296 13.5735V8.78353H112.964L112.956 18.513Z" fill="#2E343F"/>
<path d="M113.903 11.0358V8.78354H115.505V6.05364H118.173V8.78354H120.388V11.0358H118.173V15.3054C118.149 15.5703 118.226 15.8344 118.389 16.0446C118.49 16.1293 118.606 16.193 118.732 16.232C118.857 16.2709 118.99 16.2843 119.12 16.2714H120.5V18.5236H118.309C116.452 18.5236 115.524 17.5959 115.526 15.7404V11.0358H113.903Z" fill="#2E343F"/>
<path d="M14.3564 3.19999L0.5 11.2V6.39999L10.2026 0.799988L14.3564 3.19999Z" fill="#2E343F"/>
<path d="M19.9051 6.39999V9.16922L2.9 18.9846L0.5 17.6V14.9949L17.6385 5.09742L19.9051 6.39999Z" fill="#2E343F"/>
<path d="M6.18205 20.882L19.9051 12.9641V17.6L10.2026 23.2L6.18205 20.882Z" fill="#2E343F"/>
</svg>
