<svg width="113" height="28" viewBox="0 0 113 28" fill="none" xmlns="http://www.w3.org/2000/svg">
<path d="M91.1934 13.496L95.35 24.5C94.125 24.3251 92.9007 24.1059 91.6541 23.9085L89.3125 17.8284L86.9067 23.4066C85.7258 23.2092 84.5659 23.1434 83.3849 22.9901L87.6067 13.3652L83.7775 3.5H87.3217L89.4651 9.01182L91.7625 3.5H95.3493L91.1934 13.496ZM80.979 3.5H77.7632V22.575C78.8133 22.6408 79.9066 22.6842 80.979 22.8151V3.5ZM74.9849 22.356C72.0541 22.1592 69.1224 21.9849 66.1257 21.9184V3.50008H69.4067V18.8125C71.2882 18.8559 73.1691 19.0086 74.9849 19.096V22.356ZM62.625 10.9599V14.2408H58.1408V21.7H54.9041V3.5H64.0915V6.78089H58.1415V10.96H62.6257L62.625 10.9599ZM49.3908 6.78089V21.875C48.2967 21.875 47.1817 21.875 46.1092 21.9184V6.78089H42.7185V3.5H52.8025V6.78089H49.3908ZM39.1751 14.4151C37.7317 14.4151 36.025 14.4151 34.8001 14.4816V19.3592C36.7251 19.2276 38.65 19.075 40.5967 19.0092V22.1592L31.5192 22.8816V3.5H40.5961V6.78089H34.8V11.2C36.0691 11.2 38.0158 11.1342 39.1749 11.1342V14.4158L39.1751 14.4151ZM20.996 12.5776V24.0401C19.8158 24.1717 18.7651 24.325 17.65 24.5V3.5H20.7783L25.0435 15.4225V3.5H28.3251V23.1434C27.1658 23.3408 25.9843 23.4066 24.7376 23.5809L20.996 12.5776Z" fill="white"/>
</svg>
