<svg width="129" height="32" viewBox="0 0 129 32" fill="none" xmlns="http://www.w3.org/2000/svg">
<path fill-rule="evenodd" clip-rule="evenodd" d="M95.4063 19.9347C96.7176 23.1789 99.6171 25.5017 103.109 26.1147C105.151 26.4692 108.205 25.9297 110.228 24.8544C111.91 23.9584 112.179 23.6216 111.891 22.7882C111.753 22.3848 111.662 20.4772 111.662 17.9263V13.7224L102.971 13.6039V18.1789L106.178 18.1544L106.247 18.9603C106.329 19.9435 106.104 20.1139 104.733 20.1139C103.41 20.1139 102.268 19.4852 101.431 18.2935C100.889 17.5258 100.803 17.2183 100.81 16.1235C100.823 14.4333 101.423 13.2797 102.722 12.4415C103.631 11.8579 103.797 11.8226 105.247 11.9009C106.265 11.9568 107.242 12.1663 108.091 12.513L109.382 13.0379V6L106.021 6.10674C102.268 6.22523 100.85 6.54838 99.056 7.69802C97.0339 8.99846 95.4817 11.2331 94.905 13.6832C94.5015 15.4018 94.7307 18.2651 95.4063 19.9347ZM8.19372 18.2856C8.15749 21.9666 8.04684 25.1433 7.95283 25.3402C7.79027 25.676 7.99983 25.7035 11.0022 25.6995H14.2288V6.04309L4.61457 6.15374L4.55484 8.94754L4.5 11.7394L6.38016 11.664L8.25737 11.5935L8.19372 18.2856ZM15.4736 15.8757V6.0519H23.951V11.7717L21.6752 11.5807V13.6988H25.1907V6.04309H31.4011V25.6917H24.7922L24.9939 25.1619C25.1036 24.8701 25.1956 23.2416 25.1956 21.5436V18.4541H21.6556L21.7193 21.714C21.7545 23.507 21.8613 25.1345 21.9563 25.3323C22.1178 25.6682 21.9005 25.6946 18.8002 25.6946H15.4697V15.8757H15.4736ZM112.63 6.51313C112.855 7.13691 112.846 24.877 112.622 25.3402C112.456 25.68 112.8 25.7035 118.464 25.7123H124.484V19.873L124.018 20.016C123.414 20.2011 119.416 20.4185 119.064 20.2833C118.874 20.2128 118.815 19.8524 118.867 19.0906L118.943 18.0007L120.317 18.1143C121.075 18.1789 121.857 18.2935 122.055 18.3718C122.387 18.503 122.418 18.3082 122.418 16.0451V13.5764L118.903 13.7576V11.2214L120.507 11.2262C122.004 11.2331 122.884 11.3565 124.03 11.7237L124.5 11.8735L124.382 6.15374L112.459 6.04309L112.63 6.51313ZM55.7423 25.0285C52.878 18.1786 47.9563 7.08178 47.5812 6.63524L47.0877 6.04671H54.0355C57.8555 6.04671 60.9842 6.1182 60.9842 6.20045C60.9842 6.28761 60.5768 7.42549 60.0833 8.73279L59.1834 11.1114L57.6029 11.1711C56.7333 11.2025 56.0224 11.2651 56.0224 11.3082C56.0224 11.505 57.9622 16.7137 58.0886 16.8586C58.1679 16.9497 59.1432 14.5525 60.2615 11.5344L62.2915 6.04671H78.3688V9.06965C78.3688 11.8732 78.3414 12.0789 78.0055 11.9251C77.8087 11.8341 76.5513 11.7234 75.2127 11.6793L72.7832 11.601V13.7573L76.2996 13.5771V18.4195L75.3831 18.2256C74.8807 18.1189 74.111 18.0601 73.6762 18.0954L72.886 18.1581L72.7597 20.5366H74.6046C75.718 20.5366 76.801 20.4133 77.3298 20.2252C77.8116 20.0549 78.2435 19.9119 78.2856 19.9119C78.3286 19.9119 78.3649 21.2153 78.3649 22.8075V25.7032H72.3415C67.4071 25.7032 66.3564 25.6571 66.5424 25.4348C66.7872 25.1381 66.9929 10.8108 66.7481 10.8108C66.6727 10.8108 65.1832 14.1608 63.4411 18.257L60.2733 25.7032H56.0224L55.7423 25.0285ZM79.1552 6.04691L79.3246 6.51401C79.5499 7.13289 79.546 24.8749 79.3178 25.3352C79.1513 25.672 79.3765 25.6994 82.6864 25.6994C86.1275 25.6994 86.2303 25.6887 86.0207 25.3009C85.9023 25.0796 85.8073 23.7723 85.8073 22.3925C85.8073 19.8886 85.8073 19.8856 86.2734 20.0188C87.143 20.2764 88.2799 21.1528 88.8331 21.9812C89.453 22.9223 89.7057 24.5664 89.3384 25.2607L89.0975 25.6994H92.6336C94.7037 25.6994 96.1207 25.6201 96.0541 25.5144C95.9914 25.4106 95.7701 24.305 95.5567 23.0564C95.0866 20.3116 94.2494 18.5607 92.9137 17.5423L92.0294 16.8627L92.5347 16.1831C94.221 13.8966 93.9526 10.0687 91.9658 8.08472C90.35 6.46994 88.509 6.05866 82.9469 6.05572L79.1552 6.04691ZM32.3649 6.90443C32.784 8.12947 32.6841 24.8394 32.2542 25.3593C31.9938 25.6756 32.4168 25.704 37.9985 25.704H44.014V19.8658L43.5479 20.0156C43.2913 20.0978 42.0311 20.2124 40.7433 20.2682L38.4049 20.3701L38.4676 19.2596L38.5312 18.1521L39.3215 18.0874C39.7563 18.0512 40.526 18.1119 41.0273 18.2187L41.9439 18.4106V13.5682L40.1744 13.6642L38.4049 13.7543L38.5312 11.3199L40.1871 11.265C41.1223 11.2327 42.316 11.3336 42.928 11.4942L44.014 11.7782V6.05151H32.0692L32.3649 6.90443ZM87.1547 11.5229C86.7434 11.3515 86.4546 11.2379 86.2577 11.2261C85.819 11.1978 85.8073 11.66 85.8073 13.0789V14.9395H86.4399C86.8658 14.9395 87.2732 14.7456 87.6796 14.3392C88.6353 13.3825 88.3866 12.035 87.1547 11.5229Z" fill="#DB0E31"/>
</svg>
