<svg width="113" height="28" viewBox="0 0 113 28" fill="none" xmlns="http://www.w3.org/2000/svg">
<path d="M41.3164 19.6364L42.3401 17.3343C43.4463 18.1336 44.9157 18.5493 46.3687 18.5493C47.4419 18.5493 48.1188 18.1496 48.1188 17.5421C48.1023 15.8475 41.6962 17.1744 41.6466 12.9219C41.6301 10.7636 43.6114 9.10097 46.4182 9.10097C48.0858 9.10097 49.7534 9.50064 50.9422 10.4119L49.9846 12.762C48.8949 12.0905 47.541 11.6109 46.2531 11.6109C45.3781 11.6109 44.8002 12.0106 44.8002 12.5222C44.8167 14.1848 51.2724 13.2736 51.3384 17.3343C51.3384 19.5405 49.4067 21.0912 46.6329 21.0912C44.6021 21.0912 42.7363 20.6276 41.3164 19.6364Z" fill="white"/>
<path d="M80.5954 16.503C80.0836 17.3663 79.1259 17.9577 78.0198 17.9577C76.3852 17.9577 75.0644 16.6788 75.0644 15.0961C75.0644 13.5134 76.3852 12.2344 78.0198 12.2344C79.1259 12.2344 80.0836 12.8259 80.5954 13.6893L83.4188 12.1704C82.3621 10.348 80.3312 9.10097 78.0198 9.10097C74.602 9.10097 71.8282 11.7868 71.8282 15.0961C71.8282 18.4054 74.602 21.0912 78.0198 21.0912C80.3478 21.0912 82.3621 19.8602 83.4188 18.0217L80.5954 16.503Z" fill="white"/>
<path d="M52.7583 4.12901H56.2916V20.8674H52.7583V4.12901Z" fill="white"/>
<path d="M84.8056 4.12901V20.8674H88.3389V15.8475L92.5327 20.8674H97.0566L91.7237 14.9043L96.6604 9.34077H92.3346L88.3389 13.961V4.12901H84.8056Z" fill="white"/>
<path d="M66.7925 16.5349C66.2806 17.3502 65.224 17.9577 64.0352 17.9577C62.4006 17.9577 61.0798 16.6788 61.0798 15.0961C61.0798 13.5134 62.4006 12.2344 64.0352 12.2344C65.224 12.2344 66.2806 12.8739 66.7925 13.7052V16.5349ZM66.7925 9.34077V10.6997C66.2146 9.75643 64.7782 9.10097 63.2757 9.10097C60.1717 9.10097 57.7281 11.7548 57.7281 15.0801C57.7281 18.4054 60.1717 21.0912 63.2757 21.0912C64.7782 21.0912 66.2146 20.4357 66.7925 19.4925V20.8514H70.3258V9.34077H66.7925Z" fill="white"/>
<path d="M19.8057 16.7755C19.8057 17.996 18.8193 18.9825 17.5987 18.9825C16.3782 18.9825 15.3917 17.996 15.3917 16.7755C15.3917 15.555 16.3782 14.5685 17.5987 14.5685H19.8057V16.7755Z" fill="white"/>
<path d="M20.9092 16.7755C20.9092 15.555 21.8957 14.5685 23.1163 14.5685C24.3368 14.5685 25.3232 15.555 25.3232 16.7755V22.293C25.3232 23.5136 24.3368 24.5 23.1163 24.5C21.8957 24.5 20.9092 23.5136 20.9092 22.293V16.7755Z" fill="white"/>
<path d="M23.1163 7.91402C21.8957 7.91402 20.9092 6.92755 20.9092 5.70701C20.9092 4.48647 21.8957 3.5 23.1163 3.5C24.3368 3.5 25.3232 4.48647 25.3232 5.70701V7.91402H23.1163Z" fill="white"/>
<path d="M23.1163 9.03424C24.3368 9.03424 25.3232 10.0207 25.3232 11.2413C25.3232 12.4618 24.3368 13.4483 23.1163 13.4483H17.582C16.3615 13.4483 15.375 12.4618 15.375 11.2413C15.375 10.0207 16.3615 9.03424 17.582 9.03424H23.1163Z" fill="white"/>
<path d="M31.961 11.2413C31.961 10.0207 32.9475 9.03424 34.168 9.03424C35.3885 9.03424 36.375 10.0207 36.375 11.2413C36.375 12.4618 35.3885 13.4483 34.168 13.4483H31.961V11.2413Z" fill="white"/>
<path d="M30.8575 11.2413C30.8575 12.4618 29.871 13.4483 28.6505 13.4483C27.43 13.4483 26.4435 12.4618 26.4435 11.2413V5.70701C26.4435 4.48647 27.43 3.5 28.6505 3.5C29.871 3.5 30.8575 4.48647 30.8575 5.70701V11.2413Z" fill="white"/>
<path d="M28.6505 20.086C29.871 20.086 30.8575 21.0725 30.8575 22.293C30.8575 23.5136 29.871 24.5 28.6505 24.5C27.43 24.5 26.4435 23.5136 26.4435 22.293V20.086H28.6505Z" fill="white"/>
<path d="M28.6505 18.9825C27.43 18.9825 26.4435 17.996 26.4435 16.7755C26.4435 15.555 27.43 14.5685 28.6505 14.5685H34.1847C35.4053 14.5685 36.3917 15.555 36.3917 16.7755C36.3917 17.996 35.4053 18.9825 34.1847 18.9825H28.6505Z" fill="white"/>
</svg>
