<svg width="49" height="48" viewBox="0 0 49 48" fill="none" xmlns="http://www.w3.org/2000/svg">
<rect x="0.5" width="48" height="48" rx="24" fill="#437EF7"/>
<path d="M31.5572 22.2763L23.3541 30.4793C22.0989 28.2473 20.2528 26.4013 18.0208 25.146L28.3248 14.8419C28.8528 14.3139 29.1169 14.0499 29.4213 13.951C29.6891 13.864 29.9775 13.864 30.2453 13.951C30.5498 14.0499 30.8138 14.3139 31.3418 14.842L33.6582 17.1583C34.1862 17.6863 34.4502 17.9503 34.5491 18.2548C34.6361 18.5226 34.6361 18.811 34.5491 19.0788C34.4502 19.3833 34.1862 19.6473 33.6582 20.1753L33.4428 20.3906L35.6381 22.5859C36.4191 23.367 36.4191 24.6333 35.6381 25.4143L32.1095 28.9429C31.5888 29.4636 30.7446 29.4636 30.2239 28.9429C29.7032 28.4222 29.7032 27.578 30.2239 27.0573L33.281 24.0001L31.5572 22.2763Z" fill="white"/>
<path d="M16.1815 27.6223L15.1826 30.6191C14.7483 31.9219 14.5312 32.5733 14.6856 33.0064C14.8201 33.3834 15.1167 33.6801 15.4937 33.8145C15.9268 33.9689 16.5782 33.7518 17.881 33.3176L20.8778 32.3186C21.0288 32.2683 21.148 32.2285 21.2477 32.1933C20.1637 30.067 18.4331 28.3364 16.3068 27.2524C16.2716 27.3521 16.2318 27.4714 16.1815 27.6223Z" fill="white"/>
</svg>
